<?xml version="1.0" encoding="UTF-8" standalone="no"?>
<!--Generated by Intaglio, www.PurgatoryDesign.com-->

<svg
   xmlns:intaglio="http://purgatorydesign.com/namespaces/intaglio"
   xmlns:dc="http://purl.org/dc/elements/1.1/"
   xmlns:cc="http://creativecommons.org/ns#"
   xmlns:rdf="http://www.w3.org/1999/02/22-rdf-syntax-ns#"
   xmlns:svg="http://www.w3.org/2000/svg"
   xmlns="http://www.w3.org/2000/svg"
   xmlns:xlink="http://www.w3.org/1999/xlink"
   xmlns:sodipodi="http://sodipodi.sourceforge.net/DTD/sodipodi-0.dtd"
   xmlns:inkscape="http://www.inkscape.org/namespaces/inkscape"
   version="1.1"
   viewBox="0,0,783,559"
   width="783"
   height="559"
   intaglio:grid="36,36,1,1,0.5,#9999bf,1,0,0,0"
   intaglio:guides="0.8,#f0f,1,1"
   id="svg2"
   inkscape:version="0.91 r13725"
   sodipodi:docname="general_desc.svg">
  <metadata
     id="metadata84">
    <rdf:RDF>
      <cc:Work
         rdf:about="">
        <dc:format>image/svg+xml</dc:format>
        <dc:type
           rdf:resource="http://purl.org/dc/dcmitype/StillImage" />
        <dc:title></dc:title>
      </cc:Work>
    </rdf:RDF>
  </metadata>
  <defs
     id="defs82" />
  <sodipodi:namedview
     pagecolor="#ffffff"
     bordercolor="#666666"
     borderopacity="1"
     objecttolerance="10"
     gridtolerance="10"
     guidetolerance="10"
     inkscape:pageopacity="0"
     inkscape:pageshadow="2"
     inkscape:window-width="1545"
     inkscape:window-height="770"
     id="namedview80"
     showgrid="false"
     inkscape:zoom="1.1941123"
     inkscape:cx="1003.7342"
     inkscape:cy="4.7956628"
     inkscape:window-x="0"
     inkscape:window-y="0"
     inkscape:window-maximized="0"
     inkscape:current-layer="svg2" />
  <image
     sodipodi:absref="/home/scarrign/projects/PhD/dev/Lichen-s-project/doc/img/interaction_scheme.intaglio/1.jpeg"
     xlink:href="1.jpeg"
     width="880"
     height="587"
     transform="matrix(0.228295,0,0,0.228295,142,63.5)"
     id="image4" />
  <image
     sodipodi:absref="/home/scarrign/projects/PhD/dev/Lichen-s-project/doc/img/interaction_scheme.intaglio/3.png"
     xlink:href="3.png"
     width="530"
     height="401"
     transform="matrix(0.253774,0,0,0.253774,528.95,265.085)"
     id="image6" />
  <image
     sodipodi:absref="/home/scarrign/projects/PhD/dev/Lichen-s-project/doc/img/interaction_scheme.intaglio/./6.pdf"
     xlink:href="./6.pdf"
     width="223"
     height="32"
     transform="matrix(0.81,0,0,0.81,136.885,497.64)"
     id="image8" />
  <image
     sodipodi:absref="/home/scarrign/projects/PhD/dev/Lichen-s-project/doc/img/interaction_scheme.intaglio/./11.pdf"
     xlink:href="./11.pdf"
     width="95"
     height="26"
     transform="matrix(0.6,0,0,0.6,67.6,282)"
     id="image10" />
  <image
     sodipodi:absref="/home/scarrign/projects/PhD/dev/Lichen-s-project/doc/img/interaction_scheme.intaglio/13.pdf"
     xlink:href="13.pdf"
     width="200"
     height="32"
     transform="matrix(0.6,0,0,0.6,3.4,305.8)"
     id="image12" />
  <image
     sodipodi:absref="/home/scarrign/projects/PhD/dev/Lichen-s-project/doc/img/interaction_scheme.intaglio/20.jpeg"
     xlink:href="20.jpeg"
     width="1600"
     height="1200"
     transform="matrix(0.092125,0,0,0.092125,153.5,381.25)"
     id="image14" />
  <image
     sodipodi:absref="/home/scarrign/projects/PhD/dev/Lichen-s-project/doc/img/interaction_scheme.intaglio/24.pdf"
     xlink:href="24.pdf"
     width="207"
     height="26"
     transform="matrix(0.6,0,0,0.6,378.946,332)"
     id="image16" />
  <image
     sodipodi:absref="/home/scarrign/projects/PhD/dev/Lichen-s-project/doc/img/interaction_scheme.intaglio/28.pdf"
     xlink:href="28.pdf"
     width="113"
     height="26"
     transform="matrix(0.6,0,0,0.6,688,283.085)"
     id="image18" />
  <image
     sodipodi:absref="/home/scarrign/projects/PhD/dev/Lichen-s-project/doc/img/interaction_scheme.intaglio/13.pdf"
     xlink:href="13.pdf"
     width="200"
     height="32"
     transform="matrix(0.6,0,0,0.6,663.45,305.8)"
     id="image20" />
  <g
     id="g22">
    <path
       fill="none"
       intaglio:arrow-end="1"
       stroke="#000100"
       stroke-width="2"
       d="M599.135,263.637 C594.53,238.759,610.965,214.858,635.843,210.253 C660.722,205.648,684.623,222.083,689.228,246.961 C693.833,271.84,677.398,295.741,652.519,300.346 C652.301,300.386,652.083,300.425,651.864,300.462"
       intaglio:d="M599.135,263.637 C594.53,238.759,610.965,214.858,635.843,210.253 C660.722,205.648,684.623,222.083,689.228,246.961 C693.833,271.84,677.398,295.741,652.519,300.346 C648.402,301.108,644.2,301.302,640.031,300.922"
       id="path24" />
    <path
       fill="#000100"
       intaglio:omit="yes"
       d="M651.654,295.421 C648.065,297.788,644.166,299.717,640.031,300.922 C644.192,303.064,648.715,304.435,653.305,305.284"
       id="path26" />
  </g>
  <g
     id="g28">
    <path
       fill="#fffffe"
       intaglio:arrow-end="1"
       intaglio:stroke="#000100"
       stroke-width="2"
       d="M351.9,165.65 C426.893,175.48,495.041,204.573,544.74,247.977"
       id="path30" />
    <path
       fill="none"
       intaglio:omit="yes"
       stroke="#000100"
       stroke-width="2"
       stroke-dasharray="2"
       d="M351.9,165.65 C422.294,174.877,486.788,201.098,535.638,240.353"
       id="path32" />
    <path
       fill="#000100"
       intaglio:omit="yes"
       d="M532.045,243.881 C536.315,245.125,540.539,246.52,544.74,247.977 C542.666,243.952,540.528,239.958,538.254,236.042"
       id="path34" />
  </g>
  <g
     id="g36">
    <path
       fill="none"
       intaglio:arrow-end="1"
       stroke="#000100"
       stroke-width="2"
       d="M126.736,117.526 C101.919,122.449,77.8093,106.321,72.8865,81.5032 C67.9637,56.6857,84.0916,32.5764,108.909,27.6536 C133.727,22.7308,157.836,38.8587,162.759,63.6762 C162.802,63.8938,162.843,64.1117,162.883,64.3299"
       intaglio:d="M126.736,117.526 C101.919,122.449,77.8093,106.321,72.8865,81.5032 C67.9637,56.6857,84.0916,32.5764,108.909,27.6536 C133.727,22.7308,157.836,38.8587,162.759,63.6762 C163.573,67.7831,163.821,71.9823,163.495,76.1565"
       id="path38" />
    <path
       fill="#000100"
       intaglio:omit="yes"
       d="M157.845,64.6047 C160.258,68.1623,162.237,72.0365,163.495,76.1565 C165.584,71.9679,166.896,67.4282,167.686,62.8273"
       id="path40" />
  </g>
  <g
     id="g42">
    <path
       fill="#fffffe"
       intaglio:arrow-end="1"
       intaglio:stroke="#000100"
       stroke-width="2"
       d="M183.806,209.48 C130.499,257.065,118.877,316.436,150.918,377.482"
       id="path44" />
    <path
       fill="none"
       intaglio:omit="yes"
       stroke="#000100"
       stroke-width="2"
       d="M183.806,209.48 C133.699,254.209,120.337,309.434,145.745,366.793"
       id="path46" />
    <path
       fill="#000100"
       intaglio:omit="yes"
       d="M140.933,368.268 C144.149,371.458,147.482,374.53,150.918,377.482 C150.475,373.059,150.182,368.621,150.058,364.177"
       id="path48" />
  </g>
  <g
     id="g50">
    <path
       fill="#fffffe"
       intaglio:arrow-end="1"
       intaglio:stroke="#000100"
       stroke-width="2"
       d="M303.9,385.732 C391.75,340.367,402.83,275.965,335.255,203.492"
       id="path52" />
    <path
       fill="none"
       intaglio:omit="yes"
       stroke="#000100"
       stroke-width="2"
       d="M303.9,385.732 C388.053,342.276,401.863,281.292,343.16,212.354"
       id="path54" />
    <path
       fill="#000100"
       intaglio:omit="yes"
       d="M347.377,209.598 C343.394,207.449,339.349,205.418,335.255,203.492 C336.864,207.641,338.37,211.831,339.748,216.063"
       id="path56" />
  </g>
  <path
     fill="#fffffe"
     stroke="#000100"
     stroke-width="2"
     d="M516.82,325 C454.867,312.078,400.362,281.471,362.586,238.39"
     id="path58" />
  <image
     sodipodi:absref="/home/scarrign/projects/PhD/dev/Lichen-s-project/doc/img/interaction_scheme.intaglio/37.pdf"
     xlink:href="37.pdf"
     width="102"
     height="26"
     transform="matrix(0.8,0,0,0.8,210.65,200.492)"
     id="image60" />
  <image
     sodipodi:absref="/home/scarrign/projects/PhD/dev/Lichen-s-project/doc/img/interaction_scheme.intaglio/41.pdf"
     xlink:href="41.pdf"
     width="100"
     height="24"
     transform="matrix(0.7,0,0,0.7,446.82,165.65)"
     id="image62" />
  <image
     sodipodi:absref="/home/scarrign/projects/PhD/dev/Lichen-s-project/doc/img/interaction_scheme.intaglio/38.pdf"
     xlink:href="38.pdf"
     width="227"
     height="36"
     transform="matrix(0.54,0,0,0.54,3.4,331)"
     id="image72" />
  <image
     sodipodi:absref="/home/scarrign/projects/PhD/dev/Lichen-s-project/doc/img/interaction_scheme.intaglio/39.pdf"
     xlink:href="39.pdf"
     width="189"
     height="27"
     transform="matrix(0.9,0,0,0.9,511.15,367.848)"
     id="image74" />
  <path
     fill="#fffffe"
     d="M544.74,393.148 L509.89,393.148 L509.89,367.848 L544.74,367.848 L544.74,393.148 Z"
     id="path76" />
  <image
     sodipodi:absref="/home/scarrign/projects/PhD/dev/Lichen-s-project/doc/img/interaction_scheme.intaglio/40.pdf"
     xlink:href="40.pdf"
     width="37"
     height="25"
     transform="matrix(0.9,0,0,0.9,504.15,368.748)"
     id="image78" />
  <flowRoot
     xml:space="preserve"
     id="flowRoot4212"
     style="font-style:normal;font-weight:normal;font-size:18px;line-height:125%;font-family:Sans;letter-spacing:0px;word-spacing:0px;fill:#000000;fill-opacity:1;stroke:none;stroke-width:1px;stroke-linecap:butt;stroke-linejoin:miter;stroke-opacity:1"><flowRegion
       id="flowRegion4214"><rect
         id="rect4216"
         width="468.99152"
         height="146.85593"
         x="563.7373"
         y="516.36438" /></flowRegion><flowPara
       id="flowPara4218">Test MADAFAK</flowPara></flowRoot></svg>
