<?xml version="1.0" encoding="UTF-8" standalone="no"?>
<!-- Created with Inkscape (http://www.inkscape.org/) -->

<svg
   xmlns:osb="http://www.openswatchbook.org/uri/2009/osb"
   xmlns:dc="http://purl.org/dc/elements/1.1/"
   xmlns:cc="http://creativecommons.org/ns#"
   xmlns:rdf="http://www.w3.org/1999/02/22-rdf-syntax-ns#"
   xmlns:svg="http://www.w3.org/2000/svg"
   xmlns="http://www.w3.org/2000/svg"
   xmlns:sodipodi="http://sodipodi.sourceforge.net/DTD/sodipodi-0.dtd"
   xmlns:inkscape="http://www.inkscape.org/namespaces/inkscape"
   width="210mm"
   height="297mm"
   viewBox="0 0 744.09448819 1052.3622047"
   id="svg2"
   version="1.1"
   inkscape:version="0.91 r13725"
   sodipodi:docname="guild.svg">
  <defs
     id="defs4">
    <inkscape:path-effect
       effect="spiro"
       id="path-effect4772"
       is_visible="true" />
    <inkscape:path-effect
       effect="spiro"
       id="path-effect4749"
       is_visible="true" />
    <inkscape:path-effect
       effect="spiro"
       id="path-effect4707"
       is_visible="true" />
    <inkscape:path-effect
       effect="spiro"
       id="path-effect4699"
       is_visible="true" />
    <inkscape:path-effect
       effect="spiro"
       id="path-effect4262"
       is_visible="true" />
    <inkscape:path-effect
       effect="spiro"
       id="path-effect4258"
       is_visible="true" />
    <inkscape:path-effect
       effect="spiro"
       id="path-effect4254"
       is_visible="true" />
    <inkscape:path-effect
       effect="spiro"
       id="path-effect4250"
       is_visible="true" />
    <inkscape:path-effect
       effect="spiro"
       id="path-effect4242"
       is_visible="true" />
    <inkscape:path-effect
       effect="powerstroke"
       id="path-effect4197"
       is_visible="true"
       offset_points="0.017776638,0.03329444"
       sort_points="true"
       interpolator_type="Linear"
       interpolator_beta="0.2"
       start_linecap_type="zerowidth"
       linejoin_type="round"
       miter_limit="4"
       end_linecap_type="zerowidth"
       cusp_linecap_type="round" />
    <inkscape:path-effect
       effect="spiro"
       id="path-effect4195"
       is_visible="true" />
    <linearGradient
       id="linearGradient4176"
       osb:paint="solid">
      <stop
         style="stop-color:#000000;stop-opacity:1;"
         offset="0"
         id="stop4178" />
    </linearGradient>
    <inkscape:path-effect
       effect="powerstroke"
       id="path-effect4174"
       is_visible="true"
       offset_points="0.4619459,0.26447269"
       sort_points="true"
       interpolator_type="Linear"
       interpolator_beta="0.2"
       start_linecap_type="zerowidth"
       linejoin_type="round"
       miter_limit="4"
       end_linecap_type="zerowidth"
       cusp_linecap_type="round" />
    <inkscape:path-effect
       effect="spiro"
       id="path-effect4172"
       is_visible="true" />
    <inkscape:path-effect
       effect="skeletal"
       id="path-effect4144"
       is_visible="true"
       pattern="m -109.09647,157.5838 1,0"
       copytype="single_stretched"
       prop_scale="1"
       scale_y_rel="false"
       spacing="0"
       normal_offset="0"
       tang_offset="0"
       prop_units="false"
       vertical_pattern="false"
       fuse_tolerance="0" />
    <inkscape:path-effect
       effect="spiro"
       id="path-effect4142"
       is_visible="true" />
    <inkscape:path-effect
       effect="spiro"
       id="path-effect4749-6"
       is_visible="true" />
    <inkscape:path-effect
       effect="spiro"
       id="path-effect4699-9"
       is_visible="true" />
    <inkscape:path-effect
       effect="spiro"
       id="path-effect4749-1"
       is_visible="true" />
    <inkscape:path-effect
       effect="spiro"
       id="path-effect4254-6"
       is_visible="true" />
    <inkscape:path-effect
       effect="spiro"
       id="path-effect4254-6-8"
       is_visible="true" />
    <inkscape:path-effect
       effect="spiro"
       id="path-effect4749-1-8"
       is_visible="true" />
  </defs>
  <sodipodi:namedview
     id="base"
     pagecolor="#ffffff"
     bordercolor="#666666"
     borderopacity="1.0"
     inkscape:pageopacity="0.0"
     inkscape:pageshadow="2"
     inkscape:zoom="0.70710678"
     inkscape:cx="641.52411"
     inkscape:cy="18.061597"
     inkscape:document-units="px"
     inkscape:current-layer="layer1"
     showgrid="false"
     inkscape:window-width="1680"
     inkscape:window-height="995"
     inkscape:window-x="0"
     inkscape:window-y="0"
     inkscape:window-maximized="1" />
  <metadata
     id="metadata7">
    <rdf:RDF>
      <cc:Work
         rdf:about="">
        <dc:format>image/svg+xml</dc:format>
        <dc:type
           rdf:resource="http://purl.org/dc/dcmitype/StillImage" />
        <dc:title />
      </cc:Work>
    </rdf:RDF>
  </metadata>
  <g
     inkscape:label="Layer 1"
     inkscape:groupmode="layer"
     id="layer1">
    <ellipse
       style="opacity:1;fill:none;fill-opacity:1;fill-rule:nonzero;stroke:#cccccc;stroke-width:4.9000001;stroke-miterlimit:4;stroke-dasharray:29.40000057,29.40000057;stroke-dashoffset:0;stroke-opacity:1"
       id="path4834"
       cx="472.14285"
       cy="330.93362"
       rx="240.71428"
       ry="217.14285"
       inkscape:export-xdpi="90"
       inkscape:export-ydpi="90" />
    <ellipse
       style="opacity:1;fill:none;fill-opacity:1;fill-rule:nonzero;stroke:#ffd5d5;stroke-width:4.9000001;stroke-miterlimit:4;stroke-dasharray:29.40000057,29.40000057;stroke-dashoffset:0;stroke-opacity:1"
       id="path4834-0"
       cx="515.1778"
       cy="650.32147"
       rx="240.71428"
       ry="217.14285"
       inkscape:export-xdpi="90"
       inkscape:export-ydpi="90" />
    <ellipse
       style="opacity:1;fill:none;fill-opacity:1;fill-rule:nonzero;stroke:#ffeeaa;stroke-width:4.9000001;stroke-miterlimit:4;stroke-dasharray:29.40000057,29.40000057;stroke-dashoffset:0;stroke-opacity:1"
       id="path4834-4"
       cx="133.34013"
       cy="579.61084"
       rx="240.71428"
       ry="217.14285"
       inkscape:export-xdpi="90"
       inkscape:export-ydpi="90" />
    <circle
       style="opacity:1;fill:none;fill-opacity:1;fill-rule:nonzero;stroke:#aa8800;stroke-width:8;stroke-miterlimit:4;stroke-dasharray:none;stroke-dashoffset:0;stroke-opacity:1"
       id="path4709-9"
       cx="329.81482"
       cy="731.63879"
       r="5.5558391"
       inkscape:export-xdpi="90"
       inkscape:export-ydpi="90" />
    <ellipse
       style="opacity:1;fill:none;fill-opacity:1;fill-rule:nonzero;stroke:#c83737;stroke-width:1.88530099;stroke-miterlimit:4;stroke-dasharray:none;stroke-dashoffset:0;stroke-opacity:1"
       id="path4264-78"
       cx="334.3605"
       cy="722.0423"
       r="2.7650645" />
    <path
       style="fill:#000000;fill-rule:evenodd;stroke:none;stroke-width:1px;stroke-linecap:butt;stroke-linejoin:miter;stroke-opacity:1"
       d="m -44.951788,442.23007 c 0,4.54569 0,9.09137 0,13.63706"
       id="path4140"
       inkscape:path-effect="#path-effect4142;#path-effect4144"
       inkscape:original-d="m -44.951788,442.23007 0,13.63706"
       inkscape:connector-curvature="0"
       inkscape:export-xdpi="90"
       inkscape:export-ydpi="90" />
    <path
       style="fill:none;fill-rule:evenodd;stroke:#aa8800;stroke-width:10;stroke-linecap:butt;stroke-linejoin:miter;stroke-opacity:1;stroke-miterlimit:4;stroke-dasharray:none"
       d="m 121.21831,687.69714 c -0.17431,1.67627 0.16564,3.37361 0,5.05076 -0.19832,2.00807 -1.12036,3.89484 -2.35696,5.48936 -1.23661,1.59452 -2.78046,2.92281 -4.36639,4.17041 -1.58593,1.2476 -3.22817,2.42883 -4.72023,3.78729 -1.49206,1.35846 -2.84263,2.91316 -3.70871,4.73568 -0.60063,1.26392 -0.95939,2.6497 -0.98137,4.0489 -0.022,1.39921 0.29889,2.81066 0.98137,4.03232 0.8066,1.44383 2.10277,2.59007 3.59044,3.31262 1.48768,0.72255 3.15929,1.03214 4.81285,1.00043 3.30712,-0.0634 6.45413,-1.45233 9.27727,-3.17595 2.82315,-1.72363 5.42184,-3.80065 8.28321,-5.46004 2.86138,-1.65938 6.08776,-2.9089 9.39157,-2.74812 3.7439,0.1822 7.23132,2.18796 9.82509,4.89394 2.59377,2.70598 4.38925,6.07335 5.90639,9.50092 1.51714,3.42757 2.79221,6.96688 4.52179,10.29232 1.72959,3.32543 3.96555,6.47642 7.02085,8.64785 3.29035,2.33848 7.31562,3.39655 11.29847,4.05367 3.98286,0.65711 8.03595,0.96221 11.93503,2.00725 4.01456,1.076 7.82571,2.92647 11.93177,3.57045 2.05304,0.32199 4.17946,0.33119 6.18414,-0.21643 2.00468,-0.54763 3.8835,-1.68201 5.1176,-3.35402 0.93412,-1.26558 1.47377,-2.80234 1.63605,-4.36693 0.16228,-1.56459 -0.044,-3.156 -0.50306,-4.66049 -0.91821,-3.00899 -2.8069,-5.62254 -4.82481,-8.03607 -2.01791,-2.41353 -4.20768,-4.70472 -5.89128,-7.36228 -1.68359,-2.65755 -2.84906,-5.77865 -2.53873,-8.90927 0.18085,-1.82445 0.86074,-3.58454 1.8675,-5.11678 1.00676,-1.53224 2.33415,-2.84108 3.82073,-3.91413 2.97315,-2.14608 6.52506,-3.33405 10.07651,-4.24648 3.55145,-0.91243 7.17629,-1.58442 10.61981,-2.84438 3.44351,-1.25997 6.75838,-3.17745 8.97079,-6.10158 1.49456,-1.97535 2.43208,-4.35634 2.7581,-6.81183 0.32602,-2.45549 0.047,-4.98086 -0.73779,-7.33031 -1.57476,-4.71466 -5.10042,-8.56838 -9.11433,-11.50034 -4.01391,-2.93196 -8.54427,-5.0596 -12.95646,-7.34882 -4.41218,-2.28922 -8.79373,-4.80213 -12.28655,-8.33881 -1.74641,-1.76834 -3.25585,-3.78612 -4.33276,-6.02604 -1.07691,-2.23992 -1.71395,-4.70674 -1.71601,-7.19209 -0.002,-2.6933 0.74228,-5.36317 1.98821,-7.75096 1.24592,-2.38779 2.98314,-4.50043 4.97174,-6.31684 3.97721,-3.63281 8.88702,-6.05714 13.76753,-8.33665 4.8805,-2.27951 9.85808,-4.49495 14.10695,-7.80594 2.12443,-1.65549 4.05368,-3.58215 5.57051,-5.80771 1.51682,-2.22556 2.61428,-4.75769 3.03162,-7.41846 0.45972,-2.93095 0.0736,-5.99912 -1.16034,-8.69709 -1.23399,-2.69798 -3.31981,-5.00987 -5.91072,-6.4552 -3.38133,-1.88625 -7.4657,-2.23792 -11.28245,-1.58701 -3.81676,0.6509 -7.41076,2.24029 -10.83282,4.05159 -3.42206,1.81131 -6.72011,3.85913 -10.21513,5.5253 -3.49503,1.66617 -7.23788,2.95522 -11.10616,3.1218 -4.88481,0.21036 -9.68377,-1.37871 -14.09438,-3.48873 -4.4106,-2.11002 -8.55113,-4.75151 -12.96485,-6.85499 -4.41373,-2.10348 -9.21912,-3.67862 -14.10294,-3.44653 -2.44191,0.11604 -4.87604,0.69295 -7.04712,1.81668 -2.17109,1.12374 -4.07117,2.80613 -5.3288,4.9025 -1.57586,2.62683 -2.08669,5.79476 -1.87835,8.85093 0.20834,3.05617 1.09681,6.02649 2.15924,8.89961 1.06243,2.87312 2.30454,5.68032 3.26236,8.58998 0.95782,2.90966 1.63142,5.95407 1.50751,9.01482 -0.16786,4.14655 -1.77588,8.07485 -3.03944,12.02776 -0.63179,1.97646 -1.18333,3.98856 -1.42674,6.04921 -0.24342,2.06065 -0.17123,4.17939 0.42557,6.16669 1.00117,3.3338 3.37302,6.04325 5.41748,8.86047 1.02223,1.40862 1.98064,2.8781 2.65193,4.48387 0.6713,1.60578 1.0475,3.36219 0.86964,5.09352 -0.16441,1.60041 -0.80057,3.13532 -1.72651,4.45099 -0.92594,1.31567 -2.13495,2.41805 -3.46948,3.31659 -2.66907,1.79707 -5.79204,2.77303 -8.8656,3.72521 -3.07356,0.95218 -6.1967,1.9271 -8.86689,3.72252 -1.33509,0.8977 -2.54492,1.99911 -3.47209,3.31392 -0.92716,1.3148 -1.56497,2.84896 -1.73137,4.44917 z"
       id="path4240"
       inkscape:path-effect="#path-effect4242"
       inkscape:original-d="m 121.21831,687.69714 c 0,0.51759 0.28028,4.63033 0,5.05076 -6.36932,9.55397 -15.15229,-4.83471 -15.15229,18.18274 0,0.64902 -0.53828,7.54295 0,8.08122 9.85024,9.85025 34.538,-7.2754 35.35534,-7.07106 11.74579,2.93645 19.2388,25.29972 27.27412,33.33503 5.25872,5.25873 16.197,3.71542 23.2335,6.06092 4.82643,1.6088 18.49775,3.15717 23.23351,0 12.44889,-8.29926 -13.55154,-30.47562 -12.12183,-33.33504 7.66112,-15.32223 26.97786,-9.65714 35.35534,-22.22335 2.5099,-3.76486 2.02031,-9.75237 2.02031,-14.14214 0,-26.39295 -40.40611,2.08453 -40.40611,-40.4061 0,-16.45963 43.43656,-6.88676 43.43656,-43.43656 0,-8.19658 0.41304,-11.41024 -7.07106,-15.15229 -13.22345,-6.61172 -32.02281,8.25824 -43.43656,11.11168 -13.65543,3.41386 -45.90246,-12.16149 -53.53809,-7.07107 -13.55012,9.03342 -0.38664,27.19924 5.05076,35.35534 1.78469,2.67703 -1.79748,25.14091 -4.04061,24.24366 -1.56317,-0.62527 -5.05076,-1.68359 8.93905,18.43786 13.98982,20.12145 -28.13194,14.89827 -28.13194,22.9784 z"
       inkscape:connector-curvature="0"
       sodipodi:nodetypes="sssssssssssssssssscs"
       inkscape:export-xdpi="90"
       inkscape:export-ydpi="90" />
    <path
       style="fill:none;fill-rule:evenodd;stroke:#aa8800;stroke-width:10;stroke-linecap:butt;stroke-linejoin:miter;stroke-opacity:1;stroke-miterlimit:4;stroke-dasharray:none"
       d="m 69.700526,409.90519 c 3.318392,3.25783 7.744709,5.06848 11.891363,7.17334 2.073327,1.05243 4.111528,2.20202 5.924492,3.65785 1.812964,1.45584 3.40182,3.23485 4.407501,5.33125 1.109865,2.31358 1.471182,4.95087 1.218383,7.5044 -0.2528,2.55354 -1.102402,5.02657 -2.299127,7.29643 -2.39345,4.53974 -6.102921,8.22038 -9.711547,11.86943 -3.608627,3.64906 -7.238427,7.43525 -9.408702,12.08581 -1.085138,2.32528 -1.784524,4.85129 -1.850827,7.41645 -0.0663,2.56516 0.519803,5.1705 1.848769,7.36556 2.028949,3.35123 5.584372,5.48784 9.212636,6.96535 3.628264,1.47752 7.466882,2.434 10.990415,4.14633 4.521835,2.19747 8.388028,5.57343 12.897458,7.79626 2.25471,1.11141 4.68626,1.93076 7.19512,2.08748 2.50887,0.15671 5.10515,-0.38563 7.18154,-1.80252 1.47418,-1.00595 2.64746,-2.42374 3.46098,-4.01224 0.81353,-1.58849 1.27521,-3.34424 1.46168,-5.11917 0.37294,-3.54985 -0.33709,-7.12037 -1.19401,-10.58537 -0.85693,-3.465 -1.86936,-6.92039 -2.11675,-10.4812 -0.24738,-3.56081 0.3434,-7.31122 2.42871,-10.20812 1.20685,-1.67655 2.87675,-3.00425 4.75109,-3.87267 1.87434,-0.86841 3.94799,-1.2829 6.01373,-1.27955 4.13148,0.007 8.1449,1.67448 11.45854,4.14207 3.81841,2.84348 6.78122,6.70867 9.1246,10.85285 2.34337,4.14417 4.1041,8.58655 5.87264,13.00672 1.76854,4.42017 3.56127,8.85224 5.96225,12.96332 2.40098,4.11107 5.44881,7.91846 9.34508,10.65428 1.64459,1.15478 3.47062,2.12471 5.45529,2.43977 0.99234,0.15753 2.01604,0.14701 2.99429,-0.0823 0.97825,-0.22928 1.90986,-0.68126 2.6621,-1.34735 1.09928,-0.97339 1.76741,-2.3519 2.17502,-3.76249 0.40761,-1.41059 0.58036,-2.87643 0.85544,-4.31873 0.7453,-3.90784 2.2384,-7.62857 3.30968,-11.45989 1.07128,-3.83132 1.71633,-7.91932 0.73093,-11.77362 -0.87,-3.4029 -2.93392,-6.35084 -4.75004,-9.35722 -0.90806,-1.50319 -1.76542,-3.04586 -2.38822,-4.68789 -0.62281,-1.64203 -1.00734,-3.39279 -0.94296,-5.14779 0.12201,-3.32569 1.89946,-6.48336 4.47434,-8.59171 2.57488,-2.10834 5.88239,-3.21502 9.20247,-3.44337 3.32009,-0.22836 6.65768,0.3828 9.81857,1.42391 3.16089,1.0411 6.16419,2.50567 9.12452,4.02604 5.92068,3.04073 11.9259,6.39013 18.55159,7.0231 3.31285,0.31648 6.73844,-0.087 9.74906,-1.50522 3.01062,-1.41821 5.57332,-3.90468 6.75967,-7.01397 0.7267,-1.90459 0.92639,-3.96939 0.96447,-6.00755 0.0381,-2.03816 -0.0785,-4.07955 0.0457,-6.11428 0.22925,-3.75661 1.27248,-7.41092 1.86325,-11.12786 0.59078,-3.71693 0.69855,-7.66665 -0.8531,-11.0955 -1.06914,-2.36259 -2.89049,-4.35283 -5.06359,-5.76793 -2.17311,-1.41509 -4.6873,-2.26845 -7.25437,-2.63588 -5.13414,-0.73485 -10.35775,0.44134 -15.26913,2.10803 -4.91137,1.66668 -9.65817,3.83083 -14.66748,5.17482 -5.00931,1.34399 -10.42984,1.82703 -15.32412,0.11081 -5.3291,-1.8687 -9.5114,-6.17835 -12.41332,-11.02295 -2.90192,-4.84461 -4.68747,-10.25769 -6.59861,-15.57172 -1.91114,-5.31403 -4.01229,-10.65389 -7.43079,-15.14892 -1.70925,-2.24751 -3.7432,-4.26528 -6.10374,-5.8147 -2.36054,-1.54942 -5.05508,-2.62184 -7.85964,-2.94934 -3.14916,-0.36774 -6.46233,0.24816 -9.09138,2.02031 -2.82173,1.90204 -4.67538,4.98715 -5.72669,8.22361 -1.05131,3.23646 -1.37796,6.6562 -1.71197,10.0427 -0.334,3.3865 -0.68924,6.80648 -1.79316,10.02537 -1.10392,3.2189 -3.03823,6.26475 -5.92046,8.07381 -2.93875,1.84453 -6.63932,2.23917 -10.04041,1.55281 -3.4011,-0.68636 -6.53092,-2.37867 -9.32435,-4.43665 -5.58686,-4.11597 -10.02133,-9.73993 -15.990583,-13.2786 -7.218909,-4.27948 -16.415994,-5.0459 -24.243661,-2.02031 -4.878718,2.61728 -8.389993,7.63955 -9.172962,13.12033 -0.782969,5.48079 1.18162,11.28532 5.132352,15.16395 z"
       id="path4248"
       inkscape:path-effect="#path-effect4250"
       inkscape:original-d="m 69.700526,409.90519 c 4.945442,7.41816 19.29681,7.3828 22.223356,16.16244 7.153609,21.46083 -40.298069,13.34805 -20.203051,53.53808 6.273464,12.54693 11.546828,6.78357 20.203051,11.11168 5.684961,2.84248 20.389958,21.84955 27.274118,8.08122 8.98084,-17.96167 -14.11772,-36.77444 4.04061,-40.4061 6.55155,-1.31031 15.53215,-2.3484 22.22336,-1.01015 22.36989,4.47397 4.72182,38.94958 30.30457,47.47717 2.27315,0.75771 8.32544,2.40327 11.11168,1.01015 2.60816,-1.30408 2.59495,-5.90367 3.03046,-8.08122 1.06287,-5.31434 7.18947,-16.9358 4.04061,-23.23351 -2.78883,-5.57767 -12.6684,-10.01855 -8.08122,-19.1929 14.01826,-28.03651 63.11445,5.61608 67.68022,-8.08122 1.26855,-3.80564 0.22184,-8.18025 1.01015,-12.12183 0.96476,-4.82377 3.38385,-17.47597 1.01015,-22.22336 -9.67679,-19.35358 -43.21905,1.86178 -57.57869,-1.01015 -25.00823,-5.00165 -14.80491,-41.97389 -40.4061,-50.50763 -3.66736,-1.22245 -6.09746,0.82274 -9.09138,2.02031 -17.15438,6.86175 -2.44672,30.01271 -15.15228,36.36549 -15.4913,7.74565 -26.93169,-7.73879 -35.355343,-16.16244 -1.585413,-1.58541 -23.091631,-4.32437 -24.243661,-2.02031 -2.600913,7.33767 -7.232207,22.80469 -4.04061,28.28428 z"
       inkscape:connector-curvature="0"
       sodipodi:nodetypes="cssssssssssssssssssscc"
       inkscape:export-xdpi="90"
       inkscape:export-ydpi="90" />
    <path
       style="fill:none;fill-rule:evenodd;stroke:#6f916f;stroke-width:10;stroke-linecap:butt;stroke-linejoin:miter;stroke-opacity:1;stroke-miterlimit:4;stroke-dasharray:none"
       d="m 371.73614,668.50424 c -2.99159,0.70114 -6.19358,1.02172 -9.09138,0 -2.32261,-0.81891 -4.29297,-2.45687 -5.82771,-4.38293 -1.53475,-1.92606 -2.66646,-4.13908 -3.68944,-6.37932 -1.02298,-2.24023 -1.94997,-4.52841 -3.1274,-6.69147 -1.17743,-2.16305 -2.62492,-4.21669 -4.52804,-5.77979 -2.31515,-1.90152 -5.20929,-2.99395 -8.15127,-3.56003 -2.94198,-0.56609 -5.9543,-0.63441 -8.94985,-0.6828 -2.99555,-0.0484 -6.00555,-0.0798 -8.96041,-0.5743 -2.95486,-0.49447 -5.87892,-1.47722 -8.28366,-3.26409 -2.71724,-2.01907 -4.6525,-5.00365 -5.63152,-8.24426 -0.97903,-3.24062 -1.03177,-6.72381 -0.40382,-10.05033 1.2559,-6.65305 5.10882,-12.51596 9.32031,-17.81724 4.21149,-5.30129 8.89451,-10.28636 12.27348,-16.15346 1.68948,-2.93355 3.04185,-6.0834 3.7493,-9.39392 0.70745,-3.31053 0.75496,-6.79 -0.11485,-10.06162 -1.13563,-4.27141 -3.76679,-8.0008 -6.75005,-11.26191 -2.98326,-3.2611 -6.35541,-6.14681 -9.36521,-9.38344 -3.00979,-3.23663 -5.69752,-6.91512 -6.93745,-11.15743 -0.61996,-2.12116 -0.86393,-4.36453 -0.58763,-6.55709 0.27631,-2.19256 1.08394,-4.332 2.42714,-6.08684 1.7983,-2.34943 4.47603,-3.91553 7.29854,-4.80271 2.82252,-0.88719 5.80304,-1.14292 8.75961,-1.25418 2.95657,-0.11126 5.92405,-0.0841 8.86259,-0.42857 2.93854,-0.3445 5.87937,-1.08017 8.41429,-2.60592 3.36831,-2.02736 5.80511,-5.31981 7.60649,-8.8142 1.80138,-3.49439 3.0469,-7.24385 4.60123,-10.85491 1.55433,-3.61107 3.47255,-7.15705 6.34819,-9.83781 1.43781,-1.34038 3.107,-2.44771 4.94527,-3.14391 1.83827,-0.6962 3.8488,-0.97241 5.79325,-0.6842 2.41967,0.35864 4.67416,1.58856 6.41275,3.30924 1.73859,1.72067 2.97462,3.91387 3.71857,6.24409 1.48791,4.66045 1.02822,9.71999 0.0589,14.5152 -0.96938,4.7952 -2.43342,9.50438 -2.93086,14.37123 -0.24872,2.43342 -0.25182,4.90381 0.17224,7.31287 0.42406,2.40906 1.28503,4.75903 2.66997,6.7753 2.73483,3.98153 7.49728,6.42996 12.32607,6.55145 4.82878,0.12149 9.62567,-2.01594 12.92775,-5.5413 2.12592,-2.26967 3.67232,-5.0797 6.06091,-7.07106 2.33372,-1.94561 5.36137,-2.97568 8.39654,-3.11495 3.03517,-0.13927 6.07437,0.57903 8.84543,1.82518 5.54211,2.49231 9.91648,6.95824 14.07276,11.39129 3.4388,3.66779 6.9427,7.59121 8.20814,12.45708 0.63271,2.43293 0.65626,5.06193 -0.20123,7.42502 -0.8575,2.36309 -2.64637,4.4282 -4.97645,5.37172 -1.94901,0.78921 -4.14586,0.76837 -6.20905,0.36251 -2.0632,-0.40587 -4.03309,-1.17674 -6.02069,-1.86299 -1.9876,-0.68625 -4.03287,-1.29584 -6.13467,-1.35868 -2.10179,-0.0628 -4.28935,0.47288 -5.87925,1.849 -1.50645,1.30388 -2.35387,3.27338 -2.50416,5.26007 -0.15029,1.98668 0.35408,3.9854 1.2095,5.78478 1.71084,3.59876 4.72392,6.37351 7.27449,9.43498 1.27528,1.53074 2.45343,3.1627 3.27706,4.97685 0.82362,1.81416 1.2814,3.82715 1.07291,5.80857 -0.20849,1.98142 -1.12689,3.92374 -2.68559,5.16468 -0.77936,0.62047 -1.70791,1.05827 -2.6885,1.2338 -0.9806,0.17552 -2.01169,0.0849 -2.93541,-0.28808 -1.16303,-0.46963 -2.12033,-1.36828 -2.80831,-2.41703 -0.68799,-1.04875 -1.12321,-2.24452 -1.44124,-3.45781 -0.63605,-2.42657 -0.83788,-4.99801 -1.93917,-7.25189 -1.24838,-2.55491 -3.5746,-4.47476 -6.16366,-5.65068 -2.58905,-1.17592 -5.43837,-1.66553 -8.27163,-1.9077 -2.83326,-0.24217 -5.68335,-0.24805 -8.51463,-0.5124 -2.83128,-0.26434 -5.67627,-0.7996 -8.237,-2.036 -1.63866,-0.7912 -3.13692,-1.85782 -4.80305,-2.58941 -0.83307,-0.36579 -1.70979,-0.64672 -2.61375,-0.74996 -0.90396,-0.10325 -1.83788,-0.0237 -2.68473,0.30891 -0.82828,0.32536 -1.55696,0.88872 -2.10657,1.5886 -0.54961,0.69987 -0.9219,1.53326 -1.109,2.40325 -0.37422,1.73999 -0.003,3.58614 0.79561,5.17682 0.79833,1.59068 2.00078,2.94759 3.31948,4.14284 1.31871,1.19525 2.7614,2.24428 4.15124,3.35601 6.64469,5.31511 12.11012,12.13962 15.62437,19.88896 3.51426,7.74934 5.04884,16.41991 4.16706,24.88305 -0.88179,8.46314 -4.20756,16.69086 -9.64083,23.23927 -5.43328,6.54842 -12.9778,11.36438 -21.26227,13.306 z"
       id="path4252"
       inkscape:path-effect="#path-effect4254"
       inkscape:original-d="m 371.73614,668.50424 c -2.01434,1.00717 -6.83577,0 -9.09138,0 -18.41888,0 -10.08281,-12.59884 -17.17259,-23.23351 -6.48033,-9.7205 -30.6613,2.97044 -34.34519,-8.08122 -14.00352,-42.01056 26.15833,-36.89371 19.1929,-71.72083 -2.95991,-14.79956 -26.26835,-29.28126 -21.2132,-44.44671 4.9189,-14.75672 27.64996,2.27876 33.33503,-9.09138 4.58588,-9.17176 12.95616,-38.78112 29.29443,-33.33503 20.761,6.92033 -21.6974,41.92829 10.10152,52.52793 4.46954,1.48985 21.3689,3.6001 25.25382,1.01015 2.44772,-1.63181 3.93027,-5.65063 6.06091,-7.07106 11.89681,-7.93121 25.15025,-0.17262 31.31473,10.10152 3.42735,5.71225 5.39443,18.1619 3.03046,25.25382 -2.30071,6.90212 -17.43494,-4.41452 -24.24366,-1.01016 -4.50002,2.25001 3.39074,37.37565 2.0203,37.37565 -1.59205,0 -3.2187,-7.18669 -6.18872,-13.12673 -3.99192,-7.98383 -23.59607,-8.84164 -31.18692,-10.10678 -1.05065,-0.17511 -10.64982,-4.67533 -10.10153,-3.03046 1.98045,5.94136 13.33897,14.3184 5.05076,16.66752 -42.07814,11.92617 21.188,65.16744 -11.11167,81.31728 z"
       inkscape:connector-curvature="0"
       sodipodi:nodetypes="ssssssssssssssssssss"
       inkscape:export-xdpi="90"
       inkscape:export-ydpi="90" />
    <path
       style="fill:none;fill-rule:evenodd;stroke:#d45500;stroke-width:10;stroke-linecap:butt;stroke-linejoin:miter;stroke-opacity:1;stroke-miterlimit:4;stroke-dasharray:none"
       d="m 479.14316,374.31 c -3.1607,2.40883 -6.46997,4.85398 -8.41207,8.32107 -1.26933,2.26605 -1.87966,4.87065 -1.93839,7.46732 -0.0587,2.59668 0.42081,5.18784 1.22402,7.65787 1.60641,4.94005 4.46449,9.35733 7.11505,13.82491 2.65056,4.46757 5.16186,9.16142 5.95158,14.29571 0.39485,2.56715 0.34293,5.22145 -0.33805,7.72793 -0.68098,2.50648 -2.00905,4.86007 -3.93299,6.60495 -1.87185,1.69764 -4.24695,2.77406 -6.70215,3.37223 -2.4552,0.59817 -4.99946,0.73922 -7.52648,0.73891 -5.05403,-6.1e-4 -10.23353,-0.54105 -15.0658,0.93962 -4.94158,1.51416 -9.17994,5.18525 -11.38551,9.85936 -2.20558,4.67412 -2.34475,10.27874 -0.37562,15.05728 1.96913,4.77854 6.01573,8.65757 10.87258,10.42475 4.85685,1.76718 10.44922,1.39589 15.03069,-0.9962 2.8053,-1.46471 5.19392,-3.61827 7.35788,-5.92746 2.16397,-2.30919 4.13455,-4.79437 6.31266,-7.09023 2.17811,-2.29585 4.5957,-4.42182 7.42752,-5.83459 2.83182,-1.41277 6.12446,-2.06915 9.20651,-1.35077 2.15183,0.50156 4.10556,1.64057 5.87964,2.95761 1.77407,1.31704 3.40026,2.82216 5.14282,4.18063 1.74256,1.35846 3.63156,2.58378 5.74261,3.23602 2.11104,0.65225 4.47783,0.68613 6.46844,-0.27273 1.7579,-0.84676 3.11367,-2.42426 3.86127,-4.22657 0.7476,-1.8023 0.91357,-3.81431 0.66087,-5.74908 -0.50542,-3.86955 -2.59343,-7.32642 -4.66361,-10.63447 -2.07017,-3.30806 -4.21571,-6.71304 -4.86047,-10.56182 -0.32239,-1.92439 -0.2478,-3.9374 0.40115,-5.77753 0.64894,-1.84013 1.89842,-3.4954 3.59064,-4.46679 1.24188,-0.71288 2.69022,-1.04237 4.12167,-1.00483 1.43146,0.0375 2.84449,0.43517 4.11842,1.08905 2.54787,1.30776 4.48725,3.59432 5.85661,6.10961 2.73872,5.0306 3.38902,10.98734 6.10635,16.02953 3.1023,5.75654 8.95658,9.97428 15.4167,10.9886 6.46012,1.01433 13.37173,-1.2378 17.91834,-5.93784 3.00564,-3.10707 4.95936,-7.18023 5.67554,-11.44343 0.71618,-4.2632 0.21508,-8.70147 -1.26713,-12.76237 -2.96441,-8.12178 -9.73989,-14.49191 -17.5404,-18.22061 -4.77124,-2.28069 -10.043,-3.72989 -14.14213,-7.07106 -2.2038,-1.7963 -4.00598,-4.12771 -4.97652,-6.80006 -0.97053,-2.67236 -1.07301,-5.69029 -0.0743,-8.35223 1.15652,-3.0824 3.74274,-5.53136 6.77764,-6.80735 3.03489,-1.27598 6.47648,-1.43179 9.69632,-0.74525 3.21984,0.68654 6.22935,2.18296 8.92332,4.07537 2.69397,1.89242 5.08964,4.17745 7.36224,6.55948 4.54518,4.76405 8.71656,10.01692 14.20741,13.65085 2.74542,1.81697 5.814,3.20329 9.06213,3.74028 3.24813,0.537 6.68485,0.18913 9.63086,-1.28048 3.68391,-1.83772 6.42544,-5.41785 7.34411,-9.43089 0.91868,-4.01304 0.0302,-8.38384 -2.29335,-11.78232 -1.68545,-2.4652 -4.05805,-4.40161 -6.63502,-5.91065 -2.57697,-1.50904 -5.367,-2.61472 -8.16191,-3.66659 -2.79491,-1.05188 -5.61467,-2.05917 -8.28828,-3.38949 -2.67362,-1.33032 -5.21502,-3.00228 -7.21936,-5.21601 -2.37233,-2.62016 -3.90222,-5.89474 -5.08037,-9.22718 -1.17815,-3.33244 -2.03928,-6.77228 -3.27436,-10.08405 -1.23509,-3.31176 -2.88323,-6.54226 -5.38709,-9.03704 -1.25193,-1.24738 -2.71104,-2.29758 -4.32935,-3.00777 -1.61831,-0.71019 -3.39821,-1.07443 -5.16234,-0.96884 -3.30124,0.19759 -6.31941,2.01033 -8.73471,4.26944 -2.4153,2.25911 -4.34794,4.97466 -6.49586,7.48936 -2.14792,2.5147 -4.60157,4.89261 -7.65342,6.16675 -1.52593,0.63707 -3.18663,0.98197 -4.83758,0.88889 -1.65096,-0.0931 -3.29015,-0.63691 -4.60331,-1.64185 -1.63856,-1.25397 -2.69938,-3.17664 -3.10991,-5.19871 -0.41052,-2.02208 -0.20409,-4.13669 0.36794,-6.11914 1.14407,-3.96489 3.66788,-7.35584 5.77242,-10.90551 9.39665,-15.84912 10.52578,-35.66193 6.06092,-53.53808 -0.78921,-3.15978 -1.78042,-6.35481 -3.75558,-8.94436 -0.98759,-1.29477 -2.2176,-2.4194 -3.6556,-3.18355 -1.438,-0.76415 -3.08939,-1.15665 -4.71065,-1.00408 -1.37146,0.12907 -2.69558,0.64442 -3.83571,1.4175 -1.14013,0.77308 -2.09925,1.79876 -2.8567,2.94933 -1.5149,2.30115 -2.21,5.05066 -2.55229,7.78434 -0.34229,2.73369 -0.35678,5.49868 -0.6429,8.23881 -0.28612,2.74014 -0.86379,5.5043 -2.23423,7.8943 -1.87824,3.27558 -5.1431,5.60998 -8.69571,6.88912 -3.5526,1.27914 -7.38952,1.57934 -11.16401,1.4772 -7.54897,-0.20428 -15.20246,-1.95749 -22.56669,-0.2851 -3.41744,0.77609 -6.68567,2.3003 -9.35496,4.57102 -2.66928,2.27072 -4.72034,5.30129 -5.65375,8.67915 -0.93341,3.37787 -0.71291,7.09476 0.78429,10.2633 1.49719,3.16854 4.29541,5.73652 7.63957,6.7843 2.27557,0.71297 4.72578,0.7262 7.08204,0.35938 2.35626,-0.36681 4.63788,-1.10189 6.89631,-1.86739 2.25844,-0.76551 4.51252,-1.56632 6.84304,-2.07149 2.33052,-0.50517 4.75738,-0.70864 7.10108,-0.26862 2.37582,0.44605 4.61418,1.55397 6.45954,3.11542 1.84536,1.56145 3.29969,3.56866 4.27915,5.77867 1.95891,4.42002 1.97458,9.55758 0.59379,14.19086 -1.38079,4.63329 -4.08145,8.79334 -7.32431,12.37912 -3.24285,3.58578 -7.02756,6.63672 -10.8728,9.56726 z"
       id="path4256"
       inkscape:path-effect="#path-effect4258"
       inkscape:original-d="m 479.14316,374.31 c -2.6404,5.2808 -3.70439,-1.0943 -8.41207,8.32107 -11.01236,22.02472 14.9849,47.22317 8.08122,57.57869 -13.239,19.8585 -24.88251,-3.77308 -29.29443,5.05076 -5.27453,10.54907 3.03224,30.64189 14.14214,34.34519 16.74757,5.58252 12.36032,-20.20305 30.30457,-20.20305 6.9302,0 16.30826,14.71836 23.23351,10.10153 13.50364,-9.00243 -15.9952,-33.92373 -1.01015,-41.41626 14.4121,-7.20605 14.25026,20.23909 20.20305,22.22336 2.46074,0.82024 31.37091,10.94314 33.33504,5.05076 2.46967,-7.40902 -7.48593,-38.19186 -13.13199,-42.42641 -4.68928,-3.51696 -9.53881,-2.46774 -14.14213,-7.07106 -2.55921,-2.55921 -12.49863,-11.42836 -5.05077,-15.15229 38.59989,-19.29994 36.85459,26.39423 65.65992,19.1929 4.35393,-1.08849 5.05076,-17.94088 5.05076,-21.21321 0,-11.51048 -21.17662,-12.09744 -30.30457,-18.18274 -11.82885,-7.8859 -5.03799,-25.04668 -23.23351,-32.32488 -16.08424,-6.4337 -2.66343,36.94689 -32.32488,17.17259 -3.37595,-2.25063 1.87663,-20.30032 3.03045,-22.22336 12.46202,-20.77003 39.27557,-20.32343 6.06092,-53.53808 -0.96587,-0.96587 -11.13768,-13.13199 -12.12183,-13.13199 -17.24508,0 -3.5437,23.99521 -12.12183,28.28428 -9.86013,4.93006 -36.9999,-2.77179 -42.42641,8.08122 -11.5852,23.1704 -13.60589,22.71373 -6.58485,30.29777 6.38276,6.89457 32.99544,-5.18751 27.92247,-3.84812 -21.22718,5.60449 1.52831,28.24545 -6.86463,45.03133 z"
       inkscape:connector-curvature="0"
       sodipodi:nodetypes="sssssssssssssssssssssssass"
       inkscape:export-xdpi="90"
       inkscape:export-ydpi="90" />
    <path
       style="fill:none;fill-rule:evenodd;stroke:#d45500;stroke-width:10;stroke-linecap:butt;stroke-linejoin:miter;stroke-opacity:1;stroke-miterlimit:4;stroke-dasharray:none"
       d="m 521.87005,649.31134 c 1.54002,5.02497 4.39758,9.53484 7.40399,13.84569 3.00641,4.31085 6.21049,8.51895 8.57572,13.2123 2.36523,4.69336 3.86719,9.98942 3.19031,15.20131 -0.33844,2.60595 -1.22805,5.15513 -2.70595,7.32798 -1.4779,2.17286 -3.55515,3.95723 -5.98373,4.96096 -3.38661,1.39968 -7.24472,1.22372 -10.80309,0.34839 -3.55837,-0.87533 -6.9136,-2.40865 -10.3427,-3.70073 -3.4291,-1.29208 -7.02722,-2.35867 -10.68949,-2.23233 -1.83114,0.0632 -3.66207,0.43081 -5.33157,1.18567 -1.66951,0.75486 -3.17365,1.90567 -4.2494,3.38884 -1.26769,1.7478 -1.90378,3.90493 -2.02031,6.06092 -0.14964,2.76856 0.52727,5.54041 1.66397,8.06929 1.1367,2.52888 2.72235,4.83236 4.44408,7.0056 3.44346,4.34647 7.50094,8.28707 10.05439,13.20938 2.87294,5.53819 3.62383,12.15332 2.02031,18.18275 -1.70585,6.41419 -5.87027,11.89214 -8.19371,18.10933 -1.16172,3.10859 -1.85762,6.45505 -1.47404,9.75138 0.38358,3.29633 1.94183,6.54099 4.61699,8.50478 1.87487,1.3763 4.22271,2.06604 6.54822,2.02985 2.32552,-0.0362 4.6208,-0.7824 6.58376,-2.02985 2.66764,-1.69527 4.68895,-4.2605 6.21865,-7.02641 1.5297,-2.76591 2.60902,-5.75267 3.75063,-8.70003 1.14161,-2.94737 2.36434,-5.89264 4.14313,-8.50533 1.7788,-2.61268 4.1667,-4.89751 7.10079,-6.07281 3.19722,-1.28069 6.81931,-1.15541 10.15597,-0.30151 3.33665,0.85389 6.45047,2.39469 9.53918,3.91859 3.08871,1.5239 6.21018,3.05249 9.55367,3.87921 3.34349,0.82671 6.97118,0.90734 10.14713,-0.42522 2.05099,-0.86055 3.85408,-2.29486 5.1746,-4.08464 1.32053,-1.78979 2.15753,-3.92892 2.42791,-6.13664 0.27037,-2.20771 -0.0238,-4.47918 -0.8237,-6.5546 -0.79985,-2.07541 -2.1018,-3.95216 -3.74835,-5.44748 -2.38537,-2.16629 -5.40507,-3.48703 -8.04171,-5.33932 -1.31832,-0.92614 -2.55318,-1.9992 -3.49145,-3.30892 -0.93827,-1.30972 -1.56856,-2.8729 -1.59882,-4.48374 -0.0351,-1.8701 0.75315,-3.71141 2.01028,-5.09638 1.25714,-1.38497 2.95631,-2.32943 4.75647,-2.8373 3.60033,-1.01574 7.44916,-0.32986 11.07248,0.60053 3.62332,0.93039 7.25183,2.10978 10.99249,2.07012 1.87032,-0.0198 3.75482,-0.35487 5.44934,-1.14678 1.69451,-0.79191 3.19168,-2.05928 4.10473,-3.69172 0.80871,-1.44588 1.13724,-3.13758 1.04235,-4.79154 -0.0949,-1.65396 -0.60171,-3.27046 -1.36652,-4.74003 -1.52963,-2.93916 -4.03145,-5.24557 -6.60769,-7.32917 -2.57624,-2.08359 -5.2983,-4.02878 -7.48967,-6.51399 -1.09569,-1.24261 -2.05277,-2.61852 -2.73056,-4.1302 -0.6778,-1.51169 -1.07105,-3.16376 -1.03065,-4.81995 0.0482,-1.97404 0.71294,-3.90611 1.74369,-5.59036 1.03075,-1.68425 2.41773,-3.13092 3.94988,-4.37658 3.06429,-2.49131 6.68395,-4.18646 10.02545,-6.29145 3.3415,-2.10498 6.5381,-4.79078 8.02424,-8.44974 0.74307,-1.82947 1.02018,-3.87164 0.61947,-5.80518 -0.4007,-1.93354 -1.50924,-3.74266 -3.14953,-4.84203 -1.13456,-0.76042 -2.48959,-1.16674 -3.85328,-1.24295 -1.36369,-0.0762 -2.73549,0.16988 -4.02034,0.63316 -2.5697,0.92656 -4.75135,2.68372 -6.74705,4.54894 -1.99571,1.86521 -3.8708,3.87866 -6.08414,5.47958 -2.21335,1.60093 -4.84906,2.78556 -7.57946,2.7031 -1.71336,-0.0517 -3.39772,-0.60694 -4.85252,-1.5135 -1.45479,-0.90656 -2.68298,-2.15715 -3.63561,-3.58221 -1.90524,-2.85012 -2.68558,-6.32583 -2.85403,-9.74998 -0.33689,-6.84828 1.61077,-13.79344 0.23048,-20.50964 -1.33062,-6.47449 -5.85599,-12.17083 -11.77828,-15.10613 -5.9223,-2.93531 -13.10422,-3.10942 -19.2379,-0.64616 -6.13367,2.46326 -11.15534,7.48144 -13.80707,13.53602 -2.65172,6.05458 -2.94924,13.06918 -1.01243,19.38886 z"
       id="path4260"
       inkscape:path-effect="#path-effect4262"
       inkscape:original-d="m 521.87005,649.31134 c -52.72014,-0.0962 17.9144,39.68013 10.48034,54.54824 -4.44316,8.88632 -28.80904,-5.21256 -41.41625,-1.01016 -2.57116,0.85706 -2.02031,4.06758 -2.02031,6.06092 0,22.56657 12.03715,15.9084 16.16244,28.28427 1.88846,5.66538 2.02031,11.74088 2.02031,18.18275 0,14.3515 -24.68409,26.54883 -5.05076,36.36549 2.59325,1.29663 10.12765,0 13.13198,0 32.57344,0 7.03363,-25.57805 21.2132,-30.30458 15.46767,-5.15589 27.21806,16.20449 39.39595,7.07107 3.5981,-2.69857 8.53259,-19.47229 3.03046,-22.22336 -2.88844,-1.44422 -23.21779,-6.40811 -13.13198,-13.13198 19.21551,-12.81034 38.38579,30.00935 38.38579,-10.10153 0,-15.75203 -24.63155,-6.52966 -18.18274,-32.32488 3.20862,-12.83451 28.04397,-8.03226 21.2132,-35.35534 -2.21124,-8.84495 -25.53637,13.49579 -28.28427,12.12183 -9.33423,-4.66711 -0.11372,-28.02336 -11.11168,-35.35533 -7.94261,-5.29508 -22.05611,17.21599 -45.83568,17.17259 z"
       inkscape:connector-curvature="0"
       sodipodi:nodetypes="ssssssssssssssssss"
       inkscape:export-xdpi="90"
       inkscape:export-ydpi="90" />
    <circle
       style="opacity:1;fill:none;fill-opacity:1;fill-rule:nonzero;stroke:#501616;stroke-width:1.88530099;stroke-miterlimit:4;stroke-dasharray:none;stroke-dashoffset:0;stroke-opacity:1"
       id="path4264"
       cx="150.99112"
       cy="810.45734"
       r="2.7650645"
       inkscape:export-xdpi="90"
       inkscape:export-ydpi="90" />
    <circle
       style="opacity:1;fill:none;fill-opacity:1;fill-rule:nonzero;stroke:#008000;stroke-width:1.88530099;stroke-miterlimit:4;stroke-dasharray:none;stroke-dashoffset:0;stroke-opacity:1"
       id="path4264-2"
       cx="197.85715"
       cy="611.64789"
       r="2.7650645"
       inkscape:export-xdpi="90"
       inkscape:export-ydpi="90" />
    <circle
       style="opacity:1;fill:none;fill-opacity:1;fill-rule:nonzero;stroke:#008000;stroke-width:1.88530099;stroke-miterlimit:4;stroke-dasharray:none;stroke-dashoffset:0;stroke-opacity:1"
       id="path4264-7"
       cx="187.85715"
       cy="568.07648"
       r="2.7650645"
       inkscape:export-xdpi="90"
       inkscape:export-ydpi="90" />
    <circle
       style="opacity:1;fill:none;fill-opacity:1;fill-rule:nonzero;stroke:#008000;stroke-width:1.88530099;stroke-miterlimit:4;stroke-dasharray:none;stroke-dashoffset:0;stroke-opacity:1"
       id="path4264-0"
       cx="120.71429"
       cy="560.21936"
       r="2.7650645"
       inkscape:export-xdpi="90"
       inkscape:export-ydpi="90" />
    <circle
       style="opacity:1;fill:none;fill-opacity:1;fill-rule:nonzero;stroke:#008000;stroke-width:1.88530099;stroke-miterlimit:4;stroke-dasharray:none;stroke-dashoffset:0;stroke-opacity:1"
       id="path4264-9"
       cx="170.71428"
       cy="473.07648"
       r="2.7650645"
       inkscape:export-xdpi="90"
       inkscape:export-ydpi="90" />
    <circle
       style="opacity:1;fill:none;fill-opacity:1;fill-rule:nonzero;stroke:#008000;stroke-width:1.88530099;stroke-miterlimit:4;stroke-dasharray:none;stroke-dashoffset:0;stroke-opacity:1"
       id="path4264-6"
       cx="229.28572"
       cy="433.79077"
       r="2.7650645"
       inkscape:export-xdpi="90"
       inkscape:export-ydpi="90" />
    <circle
       style="opacity:1;fill:none;fill-opacity:1;fill-rule:nonzero;stroke:#008000;stroke-width:1.88530099;stroke-miterlimit:4;stroke-dasharray:none;stroke-dashoffset:0;stroke-opacity:1"
       id="path4264-06"
       cx="367.85715"
       cy="517.36218"
       r="2.7650645"
       inkscape:export-xdpi="90"
       inkscape:export-ydpi="90" />
    <circle
       style="opacity:1;fill:none;fill-opacity:1;fill-rule:nonzero;stroke:#008000;stroke-width:1.88530099;stroke-miterlimit:4;stroke-dasharray:none;stroke-dashoffset:0;stroke-opacity:1"
       id="path4264-26"
       cx="382.85715"
       cy="419.50507"
       r="2.7650645"
       inkscape:export-xdpi="90"
       inkscape:export-ydpi="90" />
    <circle
       style="opacity:1;fill:none;fill-opacity:1;fill-rule:nonzero;stroke:#008000;stroke-width:1.88530099;stroke-miterlimit:4;stroke-dasharray:none;stroke-dashoffset:0;stroke-opacity:1"
       id="path4264-1"
       cx="272.85715"
       cy="350.93362"
       r="2.7650645"
       inkscape:export-xdpi="90"
       inkscape:export-ydpi="90" />
    <circle
       style="opacity:1;fill:none;fill-opacity:1;fill-rule:nonzero;stroke:#008000;stroke-width:1.88530099;stroke-miterlimit:4;stroke-dasharray:none;stroke-dashoffset:0;stroke-opacity:1"
       id="path4264-8"
       cx="332.85715"
       cy="535.93365"
       r="2.7650645"
       inkscape:export-xdpi="90"
       inkscape:export-ydpi="90" />
    <circle
       style="opacity:1;fill:none;fill-opacity:1;fill-rule:nonzero;stroke:#008000;stroke-width:1.88530099;stroke-miterlimit:4;stroke-dasharray:none;stroke-dashoffset:0;stroke-opacity:1"
       id="path4264-79"
       cx="468.57144"
       cy="460.21936"
       r="2.7650645"
       inkscape:export-xdpi="90"
       inkscape:export-ydpi="90" />
    <circle
       style="opacity:1;fill:none;fill-opacity:1;fill-rule:nonzero;stroke:#008000;stroke-width:1.88530099;stroke-miterlimit:4;stroke-dasharray:none;stroke-dashoffset:0;stroke-opacity:1"
       id="path4264-20"
       cx="496.42856"
       cy="387.36221"
       r="2.7650645"
       inkscape:export-xdpi="90"
       inkscape:export-ydpi="90" />
    <circle
       style="opacity:1;fill:none;fill-opacity:1;fill-rule:nonzero;stroke:#008000;stroke-width:1.88530099;stroke-miterlimit:4;stroke-dasharray:none;stroke-dashoffset:0;stroke-opacity:1"
       id="path4264-23"
       cx="473.57144"
       cy="312.36221"
       r="2.7650645"
       inkscape:export-xdpi="90"
       inkscape:export-ydpi="90" />
    <circle
       style="opacity:1;fill:none;fill-opacity:1;fill-rule:nonzero;stroke:#c83737;stroke-width:1.88530099;stroke-miterlimit:4;stroke-dasharray:none;stroke-dashoffset:0;stroke-opacity:1"
       id="path4264-97"
       cx="552.55347"
       cy="669.5144"
       r="2.7650645"
       inkscape:export-xdpi="90"
       inkscape:export-ydpi="90" />
    <circle
       style="opacity:1;fill:none;fill-opacity:1;fill-rule:nonzero;stroke:#c83737;stroke-width:1.88530099;stroke-miterlimit:4;stroke-dasharray:none;stroke-dashoffset:0;stroke-opacity:1"
       id="path4264-36"
       cx="500.02551"
       cy="714.97125"
       r="2.7650645"
       inkscape:export-xdpi="90"
       inkscape:export-ydpi="90" />
    <circle
       style="opacity:1;fill:none;fill-opacity:1;fill-rule:nonzero;stroke:#c83737;stroke-width:1.88530099;stroke-miterlimit:4;stroke-dasharray:none;stroke-dashoffset:0;stroke-opacity:1"
       id="path4264-12"
       cx="490.93414"
       cy="610.92554"
       r="2.7650645"
       inkscape:export-xdpi="90"
       inkscape:export-ydpi="90" />
    <circle
       style="opacity:1;fill:none;fill-opacity:1;fill-rule:nonzero;stroke:#c83737;stroke-width:1.88530099;stroke-miterlimit:4;stroke-dasharray:none;stroke-dashoffset:0;stroke-opacity:1"
       id="path4264-19"
       cx="672.7616"
       cy="584.66156"
       r="2.7650645"
       inkscape:export-xdpi="90"
       inkscape:export-ydpi="90" />
    <circle
       style="opacity:1;fill:none;fill-opacity:1;fill-rule:nonzero;stroke:#c83737;stroke-width:1.88530099;stroke-miterlimit:4;stroke-dasharray:none;stroke-dashoffset:0;stroke-opacity:1"
       id="path4264-45"
       cx="365.67523"
       cy="609.91541"
       r="2.7650645"
       inkscape:export-xdpi="90"
       inkscape:export-ydpi="90" />
    <circle
       style="opacity:1;fill:none;fill-opacity:1;fill-rule:nonzero;stroke:#c83737;stroke-width:1.88530099;stroke-miterlimit:4;stroke-dasharray:none;stroke-dashoffset:0;stroke-opacity:1"
       id="path4264-93-1"
       cx="547.14288"
       cy="426.64792"
       r="2.7650645"
       inkscape:export-xdpi="90"
       inkscape:export-ydpi="90" />
    <circle
       style="opacity:1;fill:none;fill-opacity:1;fill-rule:nonzero;stroke:#c83737;stroke-width:1.88530099;stroke-miterlimit:4;stroke-dasharray:none;stroke-dashoffset:0;stroke-opacity:1"
       id="path4264-93-5"
       cx="509.28571"
       cy="455.21936"
       r="2.7650645"
       inkscape:export-xdpi="90"
       inkscape:export-ydpi="90" />
    <circle
       style="opacity:1;fill:none;fill-opacity:1;fill-rule:nonzero;stroke:#008000;stroke-width:1.88530099;stroke-miterlimit:4;stroke-dasharray:none;stroke-dashoffset:0;stroke-opacity:1"
       id="path4264-2-5"
       cx="160.35715"
       cy="600.93365"
       r="2.7650645"
       inkscape:export-xdpi="90"
       inkscape:export-ydpi="90" />
    <circle
       style="opacity:1;fill:none;fill-opacity:1;fill-rule:nonzero;stroke:#008000;stroke-width:1.88530099;stroke-miterlimit:4;stroke-dasharray:none;stroke-dashoffset:0;stroke-opacity:1"
       id="path4264-2-4"
       cx="157.5"
       cy="628.07648"
       r="2.7650645"
       inkscape:export-xdpi="90"
       inkscape:export-ydpi="90" />
    <circle
       style="opacity:1;fill:none;fill-opacity:1;fill-rule:nonzero;stroke:#008000;stroke-width:1.88530099;stroke-miterlimit:4;stroke-dasharray:none;stroke-dashoffset:0;stroke-opacity:1"
       id="path4264-2-7"
       cx="218.92857"
       cy="689.86218"
       r="2.7650645"
       inkscape:export-xdpi="90"
       inkscape:export-ydpi="90" />
    <circle
       style="opacity:1;fill:none;fill-opacity:1;fill-rule:nonzero;stroke:#008000;stroke-width:1.88530099;stroke-miterlimit:4;stroke-dasharray:none;stroke-dashoffset:0;stroke-opacity:1"
       id="path4264-2-6"
       cx="151.07143"
       cy="698.43365"
       r="2.7650645"
       inkscape:export-xdpi="90"
       inkscape:export-ydpi="90" />
    <circle
       style="opacity:1;fill:none;fill-opacity:1;fill-rule:nonzero;stroke:#008000;stroke-width:1.88530099;stroke-miterlimit:4;stroke-dasharray:none;stroke-dashoffset:0;stroke-opacity:1"
       id="path4264-2-56"
       cx="175.35715"
       cy="656.29077"
       r="2.7650645"
       inkscape:export-xdpi="90"
       inkscape:export-ydpi="90" />
    <circle
       style="opacity:1;fill:none;fill-opacity:1;fill-rule:nonzero;stroke:#008000;stroke-width:1.88530099;stroke-miterlimit:4;stroke-dasharray:none;stroke-dashoffset:0;stroke-opacity:1"
       id="path4264-2-9"
       cx="158.57143"
       cy="378.43362"
       r="2.7650645"
       inkscape:export-xdpi="90"
       inkscape:export-ydpi="90" />
    <circle
       style="opacity:1;fill:none;fill-opacity:1;fill-rule:nonzero;stroke:#008000;stroke-width:1.88530099;stroke-miterlimit:4;stroke-dasharray:none;stroke-dashoffset:0;stroke-opacity:1"
       id="path4264-2-3"
       cx="78.571426"
       cy="395.93362"
       r="2.7650645"
       inkscape:export-xdpi="90"
       inkscape:export-ydpi="90" />
    <circle
       style="opacity:1;fill:none;fill-opacity:1;fill-rule:nonzero;stroke:#008000;stroke-width:1.88530099;stroke-miterlimit:4;stroke-dasharray:none;stroke-dashoffset:0;stroke-opacity:1"
       id="path4264-2-74"
       cx="97.14286"
       cy="475.57648"
       r="2.7650645"
       inkscape:export-xdpi="90"
       inkscape:export-ydpi="90" />
    <circle
       style="opacity:1;fill:none;fill-opacity:1;fill-rule:nonzero;stroke:#008000;stroke-width:1.88530099;stroke-miterlimit:4;stroke-dasharray:none;stroke-dashoffset:0;stroke-opacity:1"
       id="path4264-2-52"
       cx="140.35715"
       cy="428.07648"
       r="2.7650645"
       inkscape:export-xdpi="90"
       inkscape:export-ydpi="90" />
    <circle
       style="opacity:1;fill:none;fill-opacity:1;fill-rule:nonzero;stroke:#008000;stroke-width:1.88530099;stroke-miterlimit:4;stroke-dasharray:none;stroke-dashoffset:0;stroke-opacity:1"
       id="path4264-2-54"
       cx="518.57141"
       cy="308.07648"
       r="2.7650645"
       inkscape:export-xdpi="90"
       inkscape:export-ydpi="90" />
    <circle
       style="opacity:1;fill:none;fill-opacity:1;fill-rule:nonzero;stroke:#008000;stroke-width:1.88530099;stroke-miterlimit:4;stroke-dasharray:none;stroke-dashoffset:0;stroke-opacity:1"
       id="path4264-2-744"
       cx="553.92859"
       cy="348.43362"
       r="2.7650645"
       inkscape:export-xdpi="90"
       inkscape:export-ydpi="90" />
    <circle
       style="opacity:1;fill:none;fill-opacity:1;fill-rule:nonzero;stroke:#008000;stroke-width:1.88530099;stroke-miterlimit:4;stroke-dasharray:none;stroke-dashoffset:0;stroke-opacity:1"
       id="path4264-2-30"
       cx="594.64288"
       cy="395.93362"
       r="2.7650645"
       inkscape:export-xdpi="90"
       inkscape:export-ydpi="90" />
    <circle
       style="opacity:1;fill:none;fill-opacity:1;fill-rule:nonzero;stroke:#008000;stroke-width:1.88530099;stroke-miterlimit:4;stroke-dasharray:none;stroke-dashoffset:0;stroke-opacity:1"
       id="path4264-2-78"
       cx="498.57144"
       cy="408.43362"
       r="2.7650645"
       inkscape:export-xdpi="90"
       inkscape:export-ydpi="90" />
    <circle
       style="opacity:1;fill:none;fill-opacity:1;fill-rule:nonzero;stroke:#c83737;stroke-width:1.88530099;stroke-miterlimit:4;stroke-dasharray:none;stroke-dashoffset:0;stroke-opacity:1"
       id="path4264-97-8"
       cx="530"
       cy="730.57648"
       r="2.7650645"
       inkscape:export-xdpi="90"
       inkscape:export-ydpi="90" />
    <circle
       style="opacity:1;fill:none;fill-opacity:1;fill-rule:nonzero;stroke:#c83737;stroke-width:1.88530099;stroke-miterlimit:4;stroke-dasharray:none;stroke-dashoffset:0;stroke-opacity:1"
       id="path4264-97-4"
       cx="510.35715"
       cy="780.57648"
       r="2.7650645"
       inkscape:export-xdpi="90"
       inkscape:export-ydpi="90" />
    <circle
       style="opacity:1;fill:none;fill-opacity:1;fill-rule:nonzero;stroke:#c83737;stroke-width:1.88530099;stroke-miterlimit:4;stroke-dasharray:none;stroke-dashoffset:0;stroke-opacity:1"
       id="path4264-97-3"
       cx="555"
       cy="747.71936"
       r="2.7650645"
       inkscape:export-xdpi="90"
       inkscape:export-ydpi="90" />
    <circle
       style="opacity:1;fill:none;fill-opacity:1;fill-rule:nonzero;stroke:#c83737;stroke-width:1.88530099;stroke-miterlimit:4;stroke-dasharray:none;stroke-dashoffset:0;stroke-opacity:1"
       id="path4264-97-1"
       cx="370.35715"
       cy="647.71936"
       r="2.7650645"
       inkscape:export-xdpi="90"
       inkscape:export-ydpi="90" />
    <circle
       style="opacity:1;fill:none;fill-opacity:1;fill-rule:nonzero;stroke:#c83737;stroke-width:1.88530099;stroke-miterlimit:4;stroke-dasharray:none;stroke-dashoffset:0;stroke-opacity:1"
       id="path4264-97-49"
       cx="400.35715"
       cy="553.07648"
       r="2.7650645"
       inkscape:export-xdpi="90"
       inkscape:export-ydpi="90" />
    <circle
       style="opacity:1;fill:none;fill-opacity:1;fill-rule:nonzero;stroke:#c83737;stroke-width:1.88530099;stroke-miterlimit:4;stroke-dasharray:none;stroke-dashoffset:0;stroke-opacity:1"
       id="path4264-97-2"
       cx="431.07144"
       cy="539.50507"
       r="2.7650645"
       inkscape:export-xdpi="90"
       inkscape:export-ydpi="90" />
    <circle
       style="opacity:1;fill:none;fill-opacity:1;fill-rule:nonzero;stroke:#c83737;stroke-width:1.88530099;stroke-miterlimit:4;stroke-dasharray:none;stroke-dashoffset:0;stroke-opacity:1"
       id="path4264-97-0"
       cx="325.35715"
       cy="614.86218"
       r="2.7650645"
       inkscape:export-xdpi="90"
       inkscape:export-ydpi="90" />
    <path
       style="fill:none;fill-rule:evenodd;stroke:#aa8800;stroke-width:5.3;stroke-linecap:butt;stroke-linejoin:miter;stroke-opacity:1;stroke-miterlimit:4;stroke-dasharray:none"
       d="m 263.01847,339.69958 c -1.41144,4.59224 -4.16297,8.76391 -7.82868,11.8693 -1.11715,0.94639 -2.32558,1.80064 -3.66181,2.39911 -1.31055,0.58696 -2.7181,0.91735 -4.10264,1.2983 -1.38454,0.38096 -2.77388,0.82437 -3.97858,1.60589 -1.68831,1.09525 -2.93613,2.84465 -3.44005,4.79298 -0.50392,1.94834 -0.26316,4.07645 0.64669,5.87147 0.90985,1.79503 2.47777,3.24373 4.3318,4.02637 1.85403,0.78264 3.97893,0.89675 5.91144,0.3352 1.60727,-0.46704 3.04872,-1.37131 4.43367,-2.31118 1.38495,-0.93988 2.74951,-1.93327 4.27889,-2.61332 2.91261,-1.2951 6.3099,-1.3562 9.34392,-0.37881 1.13201,0.36467 2.21494,0.86579 3.28299,1.38896 2.19527,1.07533 4.36,2.25674 6.70746,2.93864 2.34746,0.68189 4.94593,0.82664 7.18214,-0.16072 0.77875,-0.34385 1.51269,-0.83184 2.0203,-1.51523 0.52042,-0.70065 0.77248,-1.55931 1.01016,-2.39911 0.11076,-0.39134 0.2208,-0.78426 0.27999,-1.18664 0.0592,-0.40237 0.0664,-0.81675 -0.0275,-1.21247 -0.10743,-0.45275 -0.34407,-0.86688 -0.63273,-1.23185 -0.28865,-0.36497 -0.62941,-0.68491 -0.97126,-1.0006 -0.34186,-0.31568 -0.68731,-0.62978 -0.98744,-0.98537 -0.30012,-0.3556 -0.55554,-0.7566 -0.69156,-1.2016 -0.20104,-0.6577 -0.12738,-1.38105 0.12627,-2.0203 0.27751,-0.69941 0.75695,-1.30091 1.28192,-1.83996 0.52498,-0.53906 1.10125,-1.02643 1.62227,-1.56931 0.97449,-1.01537 1.74155,-2.20952 2.65165,-3.28299 1.41458,-1.66851 3.15687,-3.02557 4.67672,-4.59879 1.51985,-1.57322 2.85593,-3.46168 3.15196,-5.62901 0.14509,-1.06221 0.0283,-2.16494 -0.37881,-3.15672 -0.50869,-1.23934 -1.46192,-2.27625 -2.61206,-2.96321 -1.15013,-0.68696 -2.48873,-1.03265 -3.82766,-1.0774 -2.26456,-0.0757 -4.47224,0.68218 -6.55585,1.57243 -2.08361,0.89025 -4.12288,1.92891 -6.3236,2.46818 -1.93563,0.47432 -3.94344,0.54891 -5.93464,0.63134 -0.92899,0.0385 -1.87085,0.078 -2.77792,-0.12627 -1.51182,-0.3405 -2.79895,-1.32669 -4.27048,-1.81263 -0.73577,-0.24297 -1.53268,-0.35718 -2.28844,-0.18627 -0.37788,0.0855 -0.74137,0.24238 -1.05198,0.47394 -0.31061,0.23156 -0.56714,0.53887 -0.72286,0.89362 -0.26438,0.60226 -0.21571,1.33219 0.12627,1.89403 z"
       id="path4697"
       inkscape:path-effect="#path-effect4699"
       inkscape:original-d="m 263.01847,339.69958 c -5.42679,1.48343 -3.5496,8.65998 -7.82868,11.8693 -1.16507,0.87379 -2.42583,1.65752 -3.66181,2.39911 -2.13271,1.27963 -6.65123,1.1167 -8.08122,2.90419 -5.09796,6.37245 0.80716,13.25462 7.44988,15.02602 7.05754,1.88201 5.39844,-2.93603 8.71256,-4.9245 1.37199,-0.82319 7.57561,-0.67352 9.34392,-0.37881 1.19871,0.19979 2.23083,0.86288 3.28299,1.38896 3.14651,1.57326 10.52947,3.89797 13.8896,2.77792 0.6535,-0.21783 1.46494,-1.07094 2.0203,-1.51523 0.74563,-0.59649 1.01016,-1.49881 1.01016,-2.39911 0,-0.55698 0.61654,-1.8531 0.25253,-2.39911 -1.34064,-2.01096 -3.28299,-1.14696 -3.28299,-4.41942 0,-0.63404 -0.12878,-1.42518 0.12627,-2.0203 0.57167,-1.33391 2.04361,-2.26183 2.90419,-3.40927 0.78907,-1.0521 1.56082,-2.37397 2.65165,-3.28299 3.91229,-3.26024 7.82868,-4.16971 7.82868,-10.2278 0,-0.95723 0.24695,-2.32238 -0.37881,-3.15672 -1.58743,-2.11658 -4.00404,-3.22872 -6.43972,-4.04061 -6.08084,-2.02695 -7.97264,1.5872 -12.87945,4.04061 -1.722,0.861 -4.02993,0.63134 -5.93464,0.63134 -0.91463,0 -1.89683,0.094 -2.77792,-0.12627 -1.30266,-0.32566 -8.33376,-4.43419 -8.33376,-0.63134 0,0.63385 -0.17348,1.4444 0.12627,1.89403 z"
       inkscape:connector-curvature="0"
       inkscape:export-xdpi="90"
       inkscape:export-ydpi="90" />
    <path
       style="fill:none;fill-rule:evenodd;stroke:#aa8800;stroke-width:4.1;stroke-linecap:butt;stroke-linejoin:miter;stroke-opacity:1;stroke-miterlimit:4;stroke-dasharray:none"
       d="m 296.33929,659.77292 c -0.77538,-0.36321 -1.64684,-0.51883 -2.5,-0.44643 -1.48857,0.12632 -2.89803,0.97188 -3.71665,2.22155 -0.81863,1.24966 -1.03132,2.8757 -0.56907,4.29631 0.19394,0.59602 0.49679,1.14987 0.80357,1.69643 0.19919,0.35487 0.40668,0.71571 0.71429,0.98214 0.38381,0.33243 0.89806,0.48956 1.40555,0.50605 0.50749,0.0165 1.01115,-0.0986 1.49299,-0.25871 0.96369,-0.32028 1.89048,-0.82806 2.90503,-0.87234 1.03718,-0.0453 2.04844,0.41237 2.84993,1.07223 0.80149,0.65985 1.42018,1.51159 2.00022,2.37261 0.58005,0.86101 1.13487,1.74661 1.84016,2.50843 0.70529,0.76182 1.58379,1.40272 2.59541,1.63601 0.75084,0.17315 1.54763,0.11256 2.27955,-0.12838 0.73191,-0.24093 1.40001,-0.65792 1.97089,-1.17545 1.14176,-1.03508 1.87969,-2.44145 2.44598,-3.87474 0.23732,-0.60065 0.45011,-1.21718 0.53064,-1.85798 0.0805,-0.64079 0.0218,-1.31229 -0.26278,-1.89202 -0.33961,-0.69173 -0.98158,-1.20566 -1.69577,-1.49506 -0.71419,-0.28939 -1.49791,-0.37037 -2.26832,-0.35355 -1.54083,0.0336 -3.07961,0.44474 -4.60734,0.24147 -1.57332,-0.20934 -2.98704,-1.0518 -4.28571,-1.96429 -1.38565,-0.9736 -2.69986,-2.04886 -3.92857,-3.21428 z"
       id="path4705"
       inkscape:path-effect="#path-effect4707"
       inkscape:original-d="m 296.33929,659.77292 c -0.71837,-0.50907 -1.60423,-0.44643 -2.5,-0.44643 -3.27086,0 -4.79077,3.48757 -4.28572,6.51786 0.11015,0.6609 0.66236,1.13159 0.80357,1.69643 0.0685,0.27403 0.3922,0.82109 0.71429,0.98214 2.31135,1.15568 4.4452,-1.53058 5.80357,-0.625 4.34805,2.8987 2.10512,6.28372 9.28572,7.58928 4.92977,0.89633 6.21955,-0.40985 6.69642,-5.17857 0.0992,-0.99153 0.67886,-2.7225 0.26786,-3.75 -0.50978,-1.27445 -7.13155,-1.12718 -8.57143,-1.60714 -1.48877,-0.49626 -2.93293,-1.19127 -4.28571,-1.96429 -1.74167,-0.99524 -2.02284,-3.69072 -3.92857,-3.21428 z"
       inkscape:connector-curvature="0"
       inkscape:export-xdpi="90"
       inkscape:export-ydpi="90" />
    <circle
       style="opacity:1;fill:none;fill-opacity:1;fill-rule:nonzero;stroke:#aa8800;stroke-width:8;stroke-miterlimit:4;stroke-dasharray:none;stroke-dashoffset:0;stroke-opacity:1"
       id="path4709"
       cx="131.31982"
       cy="762.44843"
       r="5.5558391"
       inkscape:export-xdpi="90"
       inkscape:export-ydpi="90" />
    <circle
       style="opacity:1;fill:none;fill-opacity:1;fill-rule:nonzero;stroke:#008000;stroke-width:1.88530099;stroke-miterlimit:4;stroke-dasharray:none;stroke-dashoffset:0;stroke-opacity:1"
       id="path4264-2-7-6"
       cx="308.09653"
       cy="671.0296"
       r="2.7650645"
       inkscape:export-xdpi="90"
       inkscape:export-ydpi="90" />
    <path
       style="fill:none;fill-rule:evenodd;stroke:#d45500;stroke-width:4.9000001;stroke-linecap:butt;stroke-linejoin:miter;stroke-miterlimit:4;stroke-dasharray:none;stroke-opacity:1"
       d="m 389.60199,709.8846 c -0.69291,0.40354 -1.27359,0.9885 -1.70694,1.66317 -0.43335,0.67467 -0.72181,1.43742 -0.88407,2.22268 -0.32452,1.57053 -0.14748,3.20468 0.19428,4.77155 0.34176,1.56687 0.84568,3.09495 1.18332,4.66271 0.33764,1.56776 0.50606,3.2037 0.16916,4.77162 -0.28398,1.32164 -0.92173,2.5533 -1.75609,3.61688 -0.83436,1.06359 -1.86196,1.96471 -2.96658,2.74394 -2.20923,1.55844 -4.71626,2.63374 -7.06406,3.97437 -2.34781,1.34062 -4.61256,3.03068 -5.90453,5.4056 -0.64599,1.18747 -1.02831,2.53197 -0.99842,3.88344 0.0299,1.35147 0.48723,2.70644 1.363,3.73619 0.59406,0.69851 1.36815,1.23685 2.21629,1.58539 0.84813,0.34855 1.76875,0.50974 2.68571,0.50773 1.83391,-0.004 3.62129,-0.65401 5.19953,-1.58805 3.29444,-1.94974 5.70759,-5.05136 8.29385,-7.87378 1.29313,-1.41121 2.65412,-2.77363 4.20391,-3.89694 1.5498,-1.12331 3.30121,-2.00512 5.17991,-2.37141 2.02744,-0.39529 4.12607,-0.17982 6.1553,0.2062 2.02923,0.38603 4.02687,0.94098 6.07218,1.22986 2.04532,0.28889 4.17565,0.30111 6.12605,-0.37912 0.97521,-0.34011 1.89525,-0.85317 2.66205,-1.54506 0.7668,-0.69189 1.37707,-1.56564 1.71285,-2.54234 0.34815,-1.0127 0.39505,-2.11953 0.18773,-3.17014 -0.20733,-1.05061 -0.66382,-2.04528 -1.28019,-2.92098 -1.23275,-1.7514 -3.06786,-2.99885 -5.00289,-3.91686 -1.93502,-0.91802 -3.99408,-1.54037 -5.99973,-2.29166 -2.00565,-0.75129 -3.99177,-1.65182 -5.62464,-3.03775 -2.38683,-2.02587 -3.84577,-4.93301 -6.01448,-7.19084 -1.08435,-1.12892 -2.37151,-2.10429 -3.85817,-2.59433 -0.74332,-0.24502 -1.53092,-0.36512 -2.3122,-0.31847 -0.78127,0.0466 -1.5558,0.26251 -2.23213,0.6564 z"
       id="path4747"
       inkscape:path-effect="#path-effect4749"
       inkscape:original-d="m 389.60199,709.8846 c -8.63756,15.1032 10.78731,27.48343 -1.04425,18.09173 -7.08367,-5.6229 -26.11282,20.4317 -17.32668,23.36042 3.04334,1.01444 6.84012,0.50507 10.10153,0.50507 5.05417,0 10.32857,-10.46758 17.67767,-14.14213 3.71596,-1.85799 16.87434,-1.0791 22.72843,-3.03046 9.96681,-3.32227 -2.91199,-2.92414 -17.71972,-15.33739 -14.80774,-12.41325 -6.73423,-22.88092 -14.41698,-9.44724 z"
       inkscape:connector-curvature="0"
       sodipodi:nodetypes="sssssszs"
       inkscape:export-xdpi="90"
       inkscape:export-ydpi="90" />
    <circle
       style="opacity:1;fill:none;fill-opacity:1;fill-rule:nonzero;stroke:#c83737;stroke-width:1.88530099;stroke-miterlimit:4;stroke-dasharray:none;stroke-dashoffset:0;stroke-opacity:1"
       id="path4264-4"
       cx="412.5"
       cy="731.64789"
       r="2.7650645"
       inkscape:export-xdpi="90"
       inkscape:export-ydpi="90" />
    <path
       style="fill:none;fill-rule:evenodd;stroke:#6f916f;stroke-width:4.9;stroke-linecap:butt;stroke-linejoin:miter;stroke-opacity:1;stroke-miterlimit:4;stroke-dasharray:none;fill-opacity:1"
       d="m 351.42857,454.8622 c -0.21153,-1.90938 0.18725,-3.82565 0.48347,-5.72374 0.29622,-1.89808 0.48431,-3.8834 -0.12633,-5.70483 -0.37424,-1.11628 -1.03954,-2.12514 -1.86963,-2.96007 -0.83009,-0.83492 -1.82217,-1.49958 -2.88069,-2.01502 -2.11704,-1.03087 -4.46905,-1.46334 -6.79573,-1.82545 -2.32668,-0.36212 -4.68341,-0.66996 -6.89448,-1.47973 -2.21108,-0.80976 -4.30245,-2.18529 -5.48804,-4.21973 -0.71067,-1.21949 -1.06842,-2.65102 -0.95911,-4.05824 0.10932,-1.40722 0.69451,-2.78204 1.6734,-3.7989 0.70763,-0.73508 1.59808,-1.27125 2.52264,-1.70286 0.92456,-0.43161 1.89086,-0.76617 2.8345,-1.15429 3.28434,-1.35084 6.33217,-3.39502 8.53455,-6.1809 2.20238,-2.78589 3.50812,-6.34854 3.25117,-9.89052 -0.1796,-2.47573 -1.09838,-4.84935 -2.30342,-7.01946 -1.20504,-2.17011 -2.69631,-4.16508 -4.12516,-6.19483 -2.24563,-3.19002 -4.38251,-6.56235 -5.30239,-10.35351 -0.45994,-1.89559 -0.60336,-3.8808 -0.28618,-5.80542 0.31718,-1.92463 1.10702,-3.7868 2.37429,-5.26964 2.052,-2.40107 5.1473,-3.62596 8.18552,-4.48912 3.03822,-0.86316 6.1981,-1.47386 8.95734,-3.01088 4.27624,-2.38206 7.19477,-6.9358 7.85714,-11.78572 0.74541,-5.45796 -1.16442,-10.87919 -2.05365,-16.31557 -0.44461,-2.71819 -0.63287,-5.51484 -0.10681,-8.21845 0.52606,-2.70361 1.81984,-5.32242 3.94617,-7.07312 1.90544,-1.56883 4.39685,-2.35926 6.86504,-2.35794 2.46818,0.001 4.90654,0.76641 7.03404,2.01768 4.25501,2.50253 7.16084,6.79167 9.31521,11.23312 1.33403,2.75024 2.44209,5.62137 4.05254,8.21943 1.61045,2.59805 3.81233,4.95981 6.66174,6.06628 1.964,0.76265 4.12273,0.88659 6.22517,0.74983 2.10243,-0.13676 4.1801,-0.52393 6.27483,-0.74983 5.48296,-0.59131 11.23586,-0.0167 16.07668,2.62511 2.42041,1.32089 4.57874,3.1502 6.16909,5.40274 1.59035,2.25253 2.59909,4.93343 2.75423,7.68644 0.11894,2.11056 -0.28289,4.29491 -1.42857,6.07143 -1.4072,2.18203 -3.8515,3.57892 -6.40807,4.03214 -2.55657,0.45323 -5.21201,0.0292 -7.65164,-0.85948 -4.87927,-1.77726 -8.89681,-5.30102 -13.44029,-7.81552 -4.98658,-2.75972 -10.77599,-4.29972 -16.42857,-3.57143 -1.25958,0.16229 -2.51295,0.43758 -3.67952,0.93957 -1.16657,0.50199 -2.24691,1.23938 -3.04504,2.22724 -0.79813,0.98786 -1.29979,2.2366 -1.28463,3.5065 0.008,0.63495 0.14354,1.26973 0.41124,1.84554 0.2677,0.57581 0.66802,1.09147 1.16938,1.48115 0.55424,0.43079 1.21735,0.70018 1.89028,0.89997 0.67294,0.19979 1.36353,0.33504 2.03829,0.5286 2.78073,0.79769 5.2076,2.56935 7.17209,4.69291 1.9645,2.12356 3.50587,4.59825 4.97077,7.09281 0.385,0.65561 0.76849,1.32014 1.00177,2.04376 0.23329,0.72363 0.30795,1.51996 0.0697,2.24195 -0.21615,0.6549 -0.68338,1.21466 -1.2628,1.58869 -0.57941,0.37403 -1.26555,0.56788 -1.95419,0.60529 -1.37727,0.0748 -2.71818,-0.45624 -3.92587,-1.12255 -2.83827,-1.56594 -5.17704,-3.89084 -7.85714,-5.71429 -5.77258,-3.92747 -13.17072,-5.38068 -20,-3.92857 -2.85191,-0.0938 -5.72486,0.98713 -7.80768,2.93752 -2.08282,1.95039 -3.34985,4.74625 -3.44336,7.59816 -0.0935,2.85192 0.98767,5.72476 2.93826,7.8074 1.95059,2.08263 4.74657,3.3494 7.59849,3.44264 3.4212,0.11185 6.66486,-1.37215 10,-2.14286 2.68652,-0.62082 5.48946,-0.77918 8.21429,-0.35714 3.33415,0.51641 6.53179,1.91173 9.16012,4.02717 2.62833,2.11544 4.6784,4.948 5.83988,8.11568 1.5034,4.1002 1.45902,8.82437 -0.48834,12.73329 -0.97368,1.95446 -2.40614,3.68544 -4.17572,4.96471 -1.76959,1.27927 -3.87604,2.09982 -6.05023,2.302 -3.77964,0.35148 -7.48448,-1.13842 -10.83976,-2.91362 -3.35528,-1.77521 -6.58663,-3.88384 -10.23167,-4.94352 -0.99149,-0.28824 -2.01183,-0.49669 -3.0439,-0.52754 -1.03208,-0.0308 -2.07868,0.12034 -3.02753,0.52754 -1.35741,0.58254 -2.46868,1.68102 -3.15414,2.98948 -0.68546,1.30847 -0.9562,2.81585 -0.86775,4.29034 0.17689,2.94897 1.7408,5.66061 3.69698,7.87445 1.95618,2.21384 4.31359,4.02937 6.48549,6.03202 2.1719,2.00264 4.20903,4.27004 5.268,7.028 1.04631,2.72501 1.04571,5.85179 -0.0754,8.54691 -1.12106,2.69512 -3.36713,4.9174 -6.10237,5.93665 -2.73525,1.01925 -5.92227,0.79716 -8.45203,-0.65911 -2.52977,-1.45627 -4.33456,-4.13751 -4.65597,-7.03874 z"
       id="path4770"
       inkscape:path-effect="#path-effect4772"
       inkscape:original-d="m 351.42857,454.8622 c -2.07997,0.48773 2.16569,-9.62002 0.35714,-11.42857 -2.83747,-2.83747 -22.89498,-10.43283 -23.92857,-12.5 -1.25903,-2.51807 -0.87707,-5.47011 0.71429,-7.85714 0.91097,-1.36647 3.82895,-2.34775 5.35714,-2.85715 5.52316,-1.84105 10.7566,-10.92586 11.78572,-16.07142 2.39254,-11.96273 -2.87844,-7.88908 -6.42858,-13.21429 -1.21031,-1.81547 -4.38676,-19.66985 -3.21428,-21.42857 3.71797,-5.57696 13.85732,-0.92893 17.14286,-7.5 2.0727,-4.1454 5.24244,-7.86366 7.85714,-11.78572 7.46832,-11.20247 -11.54739,-26.2739 1.78571,-31.60714 1.79216,-0.71686 21.09931,10.04687 23.21429,10.89286 7.19854,2.87941 6.47131,10.04273 10.71428,14.28571 2.05801,2.05801 9.99528,0.83491 12.5,0 9.40926,-3.13642 23.50171,6.72455 25,15.71429 0.36758,2.20546 -0.168,4.39066 -1.42857,6.07143 -6.78957,9.05276 -20.67994,-0.0962 -27.5,-4.64286 -3.68558,-2.45706 -11.93778,-3.57143 -16.42857,-3.57143 -3.6784,0 -10.34099,6.08758 -6.42857,10 1.05135,1.05136 2.65177,1.10937 3.92857,1.42857 6.68355,1.67089 10.2174,6.00934 12.14286,11.78572 0.36833,1.105 1.74302,2.94253 1.07143,4.28571 -0.96596,1.93191 -5.29907,1.07143 -7.14286,1.07143 -4.16663,0 -4.56176,-4.06659 -7.85714,-5.71429 -3.20065,-1.60032 -16.46658,-5.69528 -20,-3.92857 -4.04176,5.63211 -4.28093,16.00864 -0.71429,21.78572 1.03957,1.68385 9.38242,-1.87425 10,-2.14286 2.77257,-1.38629 5.04846,-0.99031 8.21429,-0.35714 8.44132,1.68826 12.66001,2.78292 15,12.14285 1.73666,6.94666 -1.62392,21.51506 -10.71429,20 -7.65956,-1.27659 -7.01107,-7.85714 -21.07143,-7.85714 -1.66958,0 -4.46703,-0.5348 -6.07143,0 -5.83515,1.94505 12.76653,22.86246 11.42858,28.21429 -0.18136,0.72544 -14.65955,5.70093 -19.28572,6.78571 z"
       inkscape:connector-curvature="0"
       sodipodi:nodetypes="sssssssssssssssssssssssscscsssssss"
       inkscape:export-xdpi="90"
       inkscape:export-ydpi="90" />
    <circle
       style="opacity:1;fill:none;fill-opacity:1;fill-rule:nonzero;stroke:#c83737;stroke-width:1.88530099;stroke-miterlimit:4;stroke-dasharray:none;stroke-dashoffset:0;stroke-opacity:1"
       id="path4264-93"
       cx="552.55347"
       cy="629.10828"
       r="2.7650645"
       inkscape:export-xdpi="90"
       inkscape:export-ydpi="90" />
    <circle
       style="opacity:1;fill:none;fill-opacity:1;fill-rule:nonzero;stroke:#008000;stroke-width:1.88530099;stroke-miterlimit:4;stroke-dasharray:none;stroke-dashoffset:0;stroke-opacity:1"
       id="path4264-3"
       cx="361.63461"
       cy="543.2453"
       r="2.7650645"
       inkscape:export-xdpi="90"
       inkscape:export-ydpi="90" />
    <circle
       style="opacity:1;fill:none;fill-opacity:1;fill-rule:nonzero;stroke:#008000;stroke-width:1.88530099;stroke-miterlimit:4;stroke-dasharray:none;stroke-dashoffset:0;stroke-opacity:1"
       id="path4264-3-2"
       cx="342.44171"
       cy="429.09808"
       r="2.7650645"
       inkscape:export-xdpi="90"
       inkscape:export-ydpi="90" />
    <circle
       style="opacity:1;fill:none;fill-opacity:1;fill-rule:nonzero;stroke:#008000;stroke-width:1.88530099;stroke-miterlimit:4;stroke-dasharray:none;stroke-dashoffset:0;stroke-opacity:1"
       id="path4264-3-6"
       cx="346.48233"
       cy="378.59045"
       r="2.7650645"
       inkscape:export-xdpi="90"
       inkscape:export-ydpi="90" />
    <circle
       style="opacity:1;fill:none;fill-opacity:1;fill-rule:nonzero;stroke:#008000;stroke-width:1.88530099;stroke-miterlimit:4;stroke-dasharray:none;stroke-dashoffset:0;stroke-opacity:1"
       id="path4264-3-64"
       cx="424.26407"
       cy="359.39755"
       r="2.7650645"
       inkscape:export-xdpi="90"
       inkscape:export-ydpi="90" />
    <circle
       style="opacity:1;fill:none;fill-opacity:1;fill-rule:nonzero;stroke:#008000;stroke-width:1.88530099;stroke-miterlimit:4;stroke-dasharray:none;stroke-dashoffset:0;stroke-opacity:1"
       id="path4264-3-9"
       cx="371.73615"
       cy="323.03207"
       r="2.7650645"
       inkscape:export-xdpi="90"
       inkscape:export-ydpi="90" />
    <circle
       style="opacity:1;fill:none;fill-opacity:1;fill-rule:nonzero;stroke:#008000;stroke-width:1.88530099;stroke-miterlimit:4;stroke-dasharray:none;stroke-dashoffset:0;stroke-opacity:1"
       id="path4264-3-5"
       cx="372.74628"
       cy="364.44833"
       r="2.7650645"
       inkscape:export-xdpi="90"
       inkscape:export-ydpi="90" />
    <flowRoot
       xml:space="preserve"
       id="flowRoot4869"
       style="font-style:normal;font-weight:normal;font-size:18px;line-height:125%;font-family:Sans;letter-spacing:0px;word-spacing:0px;fill:#000000;fill-opacity:1;stroke:none;stroke-width:0.2;stroke-linecap:butt;stroke-linejoin:miter;stroke-miterlimit:4;stroke-dasharray:none;stroke-opacity:1"
       transform="translate(-52.146462,-38.715007)"
       inkscape:export-xdpi="90"
       inkscape:export-ydpi="90"><flowRegion
         id="flowRegion4871"><rect
           id="rect4873"
           width="181.42857"
           height="55.714287"
           x="47.142857"
           y="838.07648"
           style="stroke-width:0.2;stroke-miterlimit:4;stroke-dasharray:none" /></flowRegion><flowPara
         id="flowPara4875"
         style="font-weight:bold;font-size:40px;fill:#ffe680;stroke-width:0.2;stroke-miterlimit:4;stroke-dasharray:none">Env A</flowPara></flowRoot>    <text
       xml:space="preserve"
       style="font-style:normal;font-weight:normal;font-size:18px;line-height:125%;font-family:Sans;letter-spacing:0px;word-spacing:0px;fill:#ffd5d5;fill-opacity:1;stroke:none;stroke-width:1px;stroke-linecap:butt;stroke-linejoin:miter;stroke-opacity:1"
       x="472.94934"
       y="917.21716"
       id="text4877"
       sodipodi:linespacing="125%"
       inkscape:export-xdpi="90"
       inkscape:export-ydpi="90"><tspan
         sodipodi:role="line"
         id="tspan4879"
         x="472.94934"
         y="917.21716"
         style="font-weight:bold;font-size:37.5px">Env B</tspan></text>
    <text
       xml:space="preserve"
       style="font-style:normal;font-weight:normal;font-size:18px;line-height:125%;font-family:Sans;letter-spacing:0px;word-spacing:0px;fill:#cccccc;fill-opacity:1;stroke:none;stroke-width:1px;stroke-linecap:butt;stroke-linejoin:miter;stroke-opacity:1;"
       x="344.28571"
       y="188.07649"
       id="text4881"
       sodipodi:linespacing="125%"
       inkscape:export-xdpi="90"
       inkscape:export-ydpi="90"><tspan
         sodipodi:role="line"
         id="tspan4883"
         x="344.28571"
         y="188.07649"
         style="font-weight:bold;font-size:37.5px">Env C</tspan></text>
    <circle
       style="opacity:1;fill:none;fill-opacity:1;fill-rule:nonzero;stroke:#d45500;stroke-width:10;stroke-miterlimit:4;stroke-dasharray:none;stroke-dashoffset:0;stroke-opacity:1"
       id="path4885"
       cx="574.01917"
       cy="582.6413"
       r="6.0609155"
       inkscape:export-xdpi="90"
       inkscape:export-ydpi="90" />
    <circle
       style="opacity:1;fill:none;fill-opacity:1;fill-rule:nonzero;stroke:#d45500;stroke-width:10;stroke-miterlimit:4;stroke-dasharray:none;stroke-dashoffset:0;stroke-opacity:1"
       id="path4885-1"
       cx="604.57629"
       cy="479.60571"
       r="6.0609155"
       inkscape:export-xdpi="90"
       inkscape:export-ydpi="90" />
    <circle
       style="opacity:1;fill:none;fill-opacity:1;fill-rule:nonzero;stroke:#d45500;stroke-width:10;stroke-miterlimit:4;stroke-dasharray:none;stroke-dashoffset:0;stroke-opacity:1"
       id="path4885-7"
       cx="290.92392"
       cy="243.23001"
       r="6.0609155"
       inkscape:export-xdpi="90"
       inkscape:export-ydpi="90" />
    <circle
       style="opacity:1;fill:none;fill-opacity:1;fill-rule:nonzero;stroke:#d45500;stroke-width:10;stroke-miterlimit:4;stroke-dasharray:none;stroke-dashoffset:0;stroke-opacity:1"
       id="path4885-2"
       cx="329.81482"
       cy="860.43323"
       r="6.0609155"
       inkscape:export-xdpi="90"
       inkscape:export-ydpi="90" />
    <circle
       style="opacity:1;fill:none;fill-opacity:1;fill-rule:nonzero;stroke:#aa8800;stroke-width:8;stroke-miterlimit:4;stroke-dasharray:none;stroke-dashoffset:0;stroke-opacity:1"
       id="path4709-7"
       cx="-41.416256"
       cy="575.57019"
       r="5.5558391"
       inkscape:export-xdpi="90"
       inkscape:export-ydpi="90" />
    <circle
       style="opacity:1;fill:none;fill-opacity:1;fill-rule:nonzero;stroke:#aa8800;stroke-width:8;stroke-miterlimit:4;stroke-dasharray:none;stroke-dashoffset:0;stroke-opacity:1"
       id="path4709-2"
       cx="363.14984"
       cy="230.09804"
       r="5.5558391"
       inkscape:export-xdpi="90"
       inkscape:export-ydpi="90" />
    <circle
       style="opacity:1;fill:none;fill-opacity:1;fill-rule:nonzero;stroke:#aa8800;stroke-width:8;stroke-miterlimit:4;stroke-dasharray:none;stroke-dashoffset:0;stroke-opacity:1"
       id="path4709-26"
       cx="606.09155"
       cy="302.82901"
       r="5.5558391"
       inkscape:export-xdpi="90"
       inkscape:export-ydpi="90" />
    <circle
       style="opacity:1;fill:none;fill-opacity:1;fill-rule:nonzero;stroke:#008000;stroke-width:1.88530099;stroke-miterlimit:4;stroke-dasharray:none;stroke-dashoffset:0;stroke-opacity:1"
       id="path4264-2-744-1"
       cx="595"
       cy="306.64792"
       r="2.7650645"
       inkscape:export-xdpi="90"
       inkscape:export-ydpi="90" />
    <circle
       style="opacity:1;fill:none;fill-opacity:1;fill-rule:nonzero;stroke:#c83737;stroke-width:1.88530099;stroke-miterlimit:4;stroke-dasharray:none;stroke-dashoffset:0;stroke-opacity:1"
       id="path4264-93-1-0"
       cx="611.42859"
       cy="325.93362"
       r="2.7650645"
       inkscape:export-xdpi="90"
       inkscape:export-ydpi="90" />
    <path
       style="fill:none;fill-rule:evenodd;stroke:#d45500;stroke-width:4.9000001;stroke-linecap:butt;stroke-linejoin:miter;stroke-miterlimit:4;stroke-dasharray:none;stroke-opacity:1"
       d="m 617.92872,323.24421 c -0.68468,0.54729 -1.19091,1.3037 -1.48471,2.12953 -0.29379,0.82584 -0.37977,1.71881 -0.30087,2.59179 0.1578,1.74596 0.95669,3.37447 1.92585,4.83528 0.96917,1.46082 2.11777,2.79566 3.09376,4.25193 0.97599,1.45627 1.78944,3.07535 1.97172,4.81892 0.13618,1.30261 -0.0888,2.6297 -0.55598,3.85325 -0.46717,1.22355 -1.17137,2.34747 -1.99292,3.36747 -1.64309,2.03998 -3.73645,3.65932 -5.68336,5.41171 -1.94691,1.75238 -3.80568,3.72013 -4.76629,6.15704 -0.4803,1.21846 -0.72229,2.5419 -0.60574,3.8464 0.11655,1.30451 0.60317,2.58785 1.45618,3.58169 1.20012,1.39826 3.06734,2.1374 4.90993,2.15532 1.84258,0.0179 3.65189,-0.63795 5.1916,-1.65025 1.83193,-1.20443 3.30113,-2.89055 4.55423,-4.68954 1.25309,-1.79899 2.31064,-3.72538 3.48134,-5.57905 1.1707,-1.85366 2.47107,-3.65295 4.12376,-5.09352 1.6527,-1.44056 3.69209,-2.51005 5.87548,-2.70859 2.06201,-0.18751 4.12084,0.40331 6.02884,1.2074 1.908,0.8041 3.72132,1.82564 5.65353,2.56968 1.93221,0.74404 4.04052,1.20609 6.07589,0.82623 1.01768,-0.18993 2.00244,-0.5932 2.82291,-1.22453 0.82048,-0.63134 1.47095,-1.49584 1.79012,-2.48067 0.37255,-1.14954 0.27922,-2.42745 -0.1733,-3.54793 -0.45252,-1.12048 -1.2497,-2.08574 -2.21057,-2.81852 -1.92174,-1.46556 -4.4049,-1.98307 -6.81643,-2.14264 -2.41154,-0.15957 -4.84337,-0.004 -7.24046,-0.3116 -1.19854,-0.15404 -2.38815,-0.42585 -3.5005,-0.89798 -1.11235,-0.47214 -2.14758,-1.15006 -2.95703,-2.04729 -1.36197,-1.50967 -2.01639,-3.61093 -1.84332,-5.63679 0.17307,-2.02587 1.14963,-3.95637 2.616,-5.36485 1.20371,-1.15619 2.69985,-1.95787 4.21139,-2.66564 1.51155,-0.70776 3.06606,-1.34016 4.48261,-2.22283 1.41655,-0.88266 2.70936,-2.04867 3.43168,-3.55332 0.36116,-0.75232 0.57239,-1.5816 0.56994,-2.41612 -0.002,-0.83451 -0.22321,-1.67331 -0.67009,-2.3781 -0.54787,-0.86406 -1.42252,-1.50096 -2.39204,-1.82776 -0.96952,-0.32681 -2.02788,-0.35318 -3.03034,-0.1486 -2.00491,0.40915 -3.72431,1.6961 -5.16203,3.15214 -1.43772,1.45603 -2.66621,3.1108 -4.14157,4.5287 -1.47535,1.41789 -3.27458,2.61955 -5.30542,2.87009 -1.15007,0.14188 -2.31858,-0.0285 -3.44227,-0.31148 -1.1237,-0.28302 -2.21596,-0.67776 -3.33027,-0.99572 -1.11431,-0.31796 -2.26387,-0.56026 -3.42216,-0.52659 -1.1583,0.0337 -2.33394,0.36182 -3.23909,1.08534 z"
       id="path4747-1"
       inkscape:path-effect="#path-effect4749-6"
       inkscape:original-d="m 617.92872,323.24421 c -8.63756,15.10321 17.03731,28.01915 5.20575,18.62745 -7.08367,-5.6229 -20.93425,23.28884 -12.14811,26.21756 3.04334,1.01444 6.84012,0.50507 10.10153,0.50507 5.05417,0 10.68571,-14.39615 18.03481,-18.0707 3.71596,-1.85799 16.5172,2.84947 22.37129,0.89811 9.96681,-3.32227 -8.09056,0.64728 -22.89829,-11.76596 -3.70194,-3.10331 2.01728,-8.11628 0.77268,-11.00164 -1.2446,-2.88536 79.22365,-74.09847 12.02553,-13.23601 -1.29004,1.16841 -19.67742,8.22907 -20.0314,8.57457 -0.35397,0.34551 -11.5131,-4.10687 -13.43379,-0.74845 z"
       inkscape:connector-curvature="0"
       sodipodi:nodetypes="sssssssssss"
       inkscape:export-xdpi="90"
       inkscape:export-ydpi="90" />
    <circle
       style="opacity:1;fill:none;fill-opacity:1;fill-rule:nonzero;stroke:#c83737;stroke-width:1.88530099;stroke-miterlimit:4;stroke-dasharray:none;stroke-dashoffset:0;stroke-opacity:1"
       id="path4264-93-1-0-5"
       cx="628.67944"
       cy="332.38867"
       r="2.7650645"
       inkscape:export-xdpi="90"
       inkscape:export-ydpi="90" />
    <circle
       style="opacity:1;fill:none;fill-opacity:1;fill-rule:nonzero;stroke:#c83737;stroke-width:1.88530099;stroke-miterlimit:4;stroke-dasharray:none;stroke-dashoffset:0;stroke-opacity:1"
       id="path4264-93-1-0-9"
       cx="616.44562"
       cy="363.43817"
       r="2.7650645"
       inkscape:export-xdpi="90"
       inkscape:export-ydpi="90" />
    <circle
       style="opacity:1;fill:none;fill-opacity:1;fill-rule:nonzero;stroke:#aa8800;stroke-width:5.88578987;stroke-miterlimit:4;stroke-dasharray:none;stroke-dashoffset:0;stroke-opacity:1"
       id="path4709-7-4"
       cx="-469.76498"
       cy="473.03436"
       r="4.0875626"
       inkscape:export-xdpi="90"
       inkscape:export-ydpi="90" />
    <g
       transform="translate(-173.48721,132.52665)"
       id="g5304"
       inkscape:export-xdpi="90"
       inkscape:export-ydpi="90">
      <path
         sodipodi:nodetypes="sssssszs"
         inkscape:connector-curvature="0"
         inkscape:original-d="m -297.38664,373.26195 c -4.66356,8.15447 5.82425,14.83876 -0.56381,9.76802 -3.82459,-3.03589 -14.09873,11.03141 -9.35495,12.61268 1.64315,0.54771 3.69309,0.27269 5.45398,0.27269 2.72883,0 5.57656,-5.65162 9.54446,-7.63557 2.00631,-1.00315 9.11073,-0.58262 12.27145,-1.63619 5.38124,-1.79375 -1.57223,-1.57879 -9.56717,-8.28091 -7.99494,-6.70211 -3.63592,-12.35378 -7.78396,-5.10072 z"
         inkscape:path-effect="#path-effect4749-1-8"
         id="path4747-7"
         d="m -297.38664,373.26195 c -0.37411,0.21788 -0.68763,0.53371 -0.9216,0.89797 -0.23398,0.36427 -0.38972,0.77609 -0.47733,1.20007 -0.17521,0.84795 -0.0796,1.73025 0.10489,2.57623 0.18453,0.84598 0.4566,1.67102 0.6389,2.51748 0.18229,0.84646 0.27323,1.72972 0.0913,2.57627 -0.15333,0.71357 -0.49766,1.37857 -0.94814,1.95281 -0.45048,0.57425 -1.00531,1.06078 -1.60171,1.4815 -1.1928,0.84143 -2.54638,1.42201 -3.814,2.14583 -1.26762,0.72383 -2.49039,1.63632 -3.18795,2.91858 -0.34878,0.64113 -0.5552,1.36705 -0.53906,2.09673 0.0161,0.72968 0.26306,1.46125 0.73591,2.01723 0.32074,0.37713 0.73869,0.66779 1.19661,0.85598 0.45792,0.18818 0.95498,0.27521 1.45006,0.27413 0.99016,-0.002 1.95519,-0.35311 2.80731,-0.85742 1.77872,-1.0527 3.08162,-2.72731 4.47798,-4.25119 0.69818,-0.76193 1.433,-1.49752 2.26976,-2.10402 0.83676,-0.60649 1.78238,-1.08259 2.79672,-1.28036 1.09465,-0.21342 2.22773,-0.0971 3.32335,0.11133 1.09561,0.20842 2.17417,0.50805 3.27847,0.66403 1.1043,0.15597 2.2545,0.16257 3.30755,-0.20469 0.52653,-0.18364 1.02328,-0.46065 1.43728,-0.83421 0.41401,-0.37356 0.74351,-0.84531 0.9248,-1.37265 0.18797,-0.54677 0.2133,-1.14437 0.10136,-1.71161 -0.11194,-0.56724 -0.35841,-1.10428 -0.6912,-1.57709 -0.66558,-0.94561 -1.65638,-1.61913 -2.70114,-2.11478 -1.04475,-0.49565 -2.15647,-0.83167 -3.23935,-1.2373 -1.08289,-0.40563 -2.15523,-0.89184 -3.03684,-1.64013 -1.28869,-1.0938 -2.0764,-2.66341 -3.24731,-3.88245 -0.58546,-0.60952 -1.28042,-1.13614 -2.08309,-1.40072 -0.40133,-0.13229 -0.82657,-0.19714 -1.2484,-0.17195 -0.42182,0.0252 -0.84,0.14174 -1.20516,0.3544 z"
         style="fill:none;fill-rule:evenodd;stroke:#d45500;stroke-width:2.64559007;stroke-linecap:butt;stroke-linejoin:miter;stroke-miterlimit:4;stroke-dasharray:none;stroke-opacity:1" />
      <circle
         r="1.4929035"
         cy="385.0123"
         cx="-285.02362"
         id="path4264-4-7"
         style="opacity:1;fill:none;fill-opacity:1;fill-rule:nonzero;stroke:#c83737;stroke-width:1.01790476;stroke-miterlimit:4;stroke-dasharray:none;stroke-dashoffset:0;stroke-opacity:1" />
    </g>
    <g
       id="g5293"
       transform="translate(-192.68011,47.673829)"
       inkscape:export-xdpi="90"
       inkscape:export-ydpi="90">
      <path
         sodipodi:nodetypes="ssssssssssssssssssss"
         inkscape:connector-curvature="0"
         inkscape:original-d="m -268.51364,606.53135 c -1.17971,0.58985 -4.00339,0 -5.32439,0 -10.78705,0 -5.90502,-7.37853 -10.05716,-13.60675 -3.79522,-5.69283 -17.95685,1.73964 -20.11433,-4.73278 -8.20119,-24.60357 15.31968,-21.60688 11.24036,-42.00345 -1.73348,-8.66739 -15.38411,-17.14863 -12.42355,-26.03031 2.88076,-8.6423 16.19325,1.33456 19.52272,-5.32438 2.68573,-5.37146 7.58781,-22.71224 17.15635,-19.52273 12.15872,4.0529 -12.70713,24.55539 5.91597,30.76309 2.6176,0.87253 12.51474,2.1084 14.78995,0.59159 1.43352,-0.95567 2.30177,-3.3093 3.54959,-4.14118 6.96739,-4.64493 14.72929,-0.10109 18.33953,5.91598 2.00724,3.34539 3.15926,10.63655 1.7748,14.78995 -1.34742,4.04224 -10.21081,-2.58537 -14.19835,-0.5916 -2.63545,1.31772 1.98579,21.88912 1.18319,21.88912 -0.93239,0 -1.88504,-4.2089 -3.62443,-7.68769 -2.33788,-4.67575 -13.81909,-5.17813 -18.26469,-5.91906 -0.61531,-0.10255 -6.23709,-2.73812 -5.91598,-1.77479 1.15986,3.47956 7.812,8.3856 2.95799,9.76136 -24.64315,6.98459 12.40879,38.16545 -6.50757,47.62363 z"
         inkscape:path-effect="#path-effect4254-6-8"
         id="path4252-5"
         d="m -268.51364,606.53135 c -1.75203,0.41062 -3.62728,0.59837 -5.32439,0 -1.36024,-0.4796 -2.51418,-1.43887 -3.41301,-2.56687 -0.89883,-1.128 -1.56162,-2.42406 -2.16072,-3.73606 -0.59911,-1.312 -1.14201,-2.65208 -1.83158,-3.91887 -0.68956,-1.2668 -1.53729,-2.46952 -2.65185,-3.38495 -1.35587,-1.11363 -3.05083,-1.75341 -4.77381,-2.08494 -1.72297,-0.33153 -3.48714,-0.37154 -5.2415,-0.39988 -1.75435,-0.0284 -3.51716,-0.0468 -5.24768,-0.33634 -1.73052,-0.28959 -3.443,-0.86514 -4.85134,-1.91162 -1.59136,-1.18247 -2.72474,-2.9304 -3.29811,-4.82827 -0.57337,-1.89787 -0.60426,-3.93781 -0.2365,-5.886 0.73552,-3.89636 2.99199,-7.32999 5.45846,-10.4347 2.46646,-3.10471 5.20908,-6.02422 7.18798,-9.4603 0.98945,-1.71804 1.78147,-3.56276 2.19579,-5.50157 0.41432,-1.93882 0.44215,-3.97658 -0.0673,-5.89261 -0.66508,-2.50156 -2.20603,-4.68569 -3.95318,-6.59556 -1.74715,-1.90987 -3.72206,-3.59989 -5.48475,-5.49543 -1.76269,-1.89554 -3.33677,-4.04986 -4.06293,-6.53438 -0.36309,-1.24226 -0.50597,-2.55609 -0.34415,-3.84017 0.16182,-1.28408 0.63481,-2.53704 1.42146,-3.56477 1.05318,-1.37595 2.62139,-2.29313 4.27441,-2.81272 1.65301,-0.51958 3.39855,-0.66934 5.13007,-0.7345 1.73153,-0.0652 3.46943,-0.0492 5.19039,-0.251 1.72097,-0.20175 3.44327,-0.6326 4.92785,-1.52616 1.97266,-1.18733 3.39977,-3.11556 4.45476,-5.16206 1.05498,-2.04649 1.78442,-4.24237 2.69472,-6.3572 0.9103,-2.11483 2.03371,-4.19154 3.71783,-5.76153 0.84206,-0.785 1.81963,-1.43351 2.89621,-1.84124 1.07659,-0.40773 2.25406,-0.56949 3.39283,-0.4007 1.41708,0.21004 2.73743,0.93035 3.75564,1.93806 1.01821,1.00772 1.74209,2.29217 2.17778,3.65687 0.8714,2.7294 0.60218,5.69253 0.0345,8.50085 -0.56771,2.80832 -1.42513,5.56626 -1.71646,8.41654 -0.14566,1.42514 -0.14748,2.87193 0.10088,4.2828 0.24835,1.41088 0.75258,2.78714 1.56367,3.96797 1.60166,2.33179 4.3908,3.76571 7.21879,3.83686 2.82798,0.0711 5.63729,-1.18064 7.57116,-3.24527 1.24505,-1.32923 2.1507,-2.97494 3.54959,-4.14118 1.36675,-1.13945 3.1399,-1.74271 4.91745,-1.82427 1.77755,-0.0816 3.55747,0.33911 5.18034,1.06892 3.24575,1.45963 5.8076,4.07511 8.24174,6.67133 2.01394,2.14805 4.06601,4.44581 4.80711,7.29551 0.37056,1.42486 0.38435,2.96453 -0.11785,4.34848 -0.50219,1.38395 -1.54984,2.59339 -2.91446,3.14596 -1.14144,0.4622 -2.42803,0.45 -3.63635,0.2123 -1.20831,-0.23769 -2.36198,-0.68916 -3.52602,-1.09106 -1.16405,-0.4019 -2.36186,-0.75891 -3.59278,-0.79571 -1.23092,-0.0368 -2.51207,0.27694 -3.4432,1.08287 -0.88225,0.76362 -1.37855,1.91706 -1.46657,3.08057 -0.088,1.1635 0.20737,2.33406 0.70835,3.38787 1.00196,2.10762 2.76657,3.73266 4.26032,5.52561 0.74687,0.89648 1.43686,1.85224 1.91921,2.91471 0.48236,1.06246 0.75046,2.24137 0.62835,3.4018 -0.1221,1.16042 -0.65996,2.29794 -1.57282,3.0247 -0.45643,0.36338 -1.00023,0.61978 -1.57452,0.72257 -0.57429,0.1028 -1.17815,0.0497 -1.71913,-0.16871 -0.68113,-0.27504 -1.24177,-0.80133 -1.64469,-1.41554 -0.40292,-0.6142 -0.65781,-1.31451 -0.84406,-2.02507 -0.37251,-1.42112 -0.49071,-2.92709 -1.13568,-4.24708 -0.73111,-1.49629 -2.09347,-2.62065 -3.60976,-3.30934 -1.51629,-0.68868 -3.18499,-0.97542 -4.8443,-1.11725 -1.6593,-0.14182 -3.32847,-0.14527 -4.98661,-0.30008 -1.65814,-0.15481 -3.32432,-0.46829 -4.82402,-1.19239 -0.95969,-0.46337 -1.83714,-1.08804 -2.81291,-1.51649 -0.48789,-0.21423 -1.00135,-0.37875 -1.53076,-0.43922 -0.5294,-0.0605 -1.07635,-0.0139 -1.57231,0.18092 -0.48508,0.19055 -0.91183,0.52048 -1.23371,0.93036 -0.32188,0.40989 -0.53992,0.89796 -0.64949,1.40747 -0.21916,1.01903 -0.002,2.10023 0.46595,3.03182 0.46754,0.93158 1.17176,1.72626 1.94406,2.42626 0.7723,0.69999 1.61722,1.31436 2.43118,1.96545 3.89148,3.1128 7.09232,7.10959 9.15045,11.64801 2.05813,4.53842 2.95686,9.61635 2.44044,14.57281 -0.51642,4.95645 -2.46416,9.77503 -5.64617,13.61013 -3.18201,3.83509 -7.60048,6.65556 -12.45229,7.79268 z"
         style="fill:none;fill-rule:evenodd;stroke:#6f916f;stroke-width:5.85652018;stroke-linecap:butt;stroke-linejoin:miter;stroke-miterlimit:4;stroke-dasharray:none;stroke-opacity:1" />
      <circle
         r="1.6193656"
         cy="518.01471"
         cx="-270.78537"
         id="path4264-06-6"
         style="opacity:1;fill:none;fill-opacity:1;fill-rule:nonzero;stroke:#008000;stroke-width:1.10413039;stroke-miterlimit:4;stroke-dasharray:none;stroke-dashoffset:0;stroke-opacity:1" />
      <circle
         r="1.6193656"
         cy="528.89111"
         cx="-291.2832"
         id="path4264-8-3"
         style="opacity:1;fill:none;fill-opacity:1;fill-rule:nonzero;stroke:#008000;stroke-width:1.10413039;stroke-miterlimit:4;stroke-dasharray:none;stroke-dashoffset:0;stroke-opacity:1" />
      <circle
         r="1.6193656"
         cy="572.21869"
         cx="-272.06323"
         id="path4264-45-9"
         style="opacity:1;fill:none;fill-opacity:1;fill-rule:nonzero;stroke:#c83737;stroke-width:1.10413039;stroke-miterlimit:4;stroke-dasharray:none;stroke-dashoffset:0;stroke-opacity:1" />
      <circle
         r="1.6193656"
         cy="594.35864"
         cx="-269.32126"
         id="path4264-97-1-4"
         style="opacity:1;fill:none;fill-opacity:1;fill-rule:nonzero;stroke:#c83737;stroke-width:1.10413039;stroke-miterlimit:4;stroke-dasharray:none;stroke-dashoffset:0;stroke-opacity:1" />
      <circle
         r="1.6193656"
         cy="538.93085"
         cx="-251.75169"
         id="path4264-97-49-8"
         style="opacity:1;fill:none;fill-opacity:1;fill-rule:nonzero;stroke:#c83737;stroke-width:1.10413039;stroke-miterlimit:4;stroke-dasharray:none;stroke-dashoffset:0;stroke-opacity:1" />
      <circle
         r="1.6193656"
         cy="530.98273"
         cx="-233.76381"
         id="path4264-97-2-1"
         style="opacity:1;fill:none;fill-opacity:1;fill-rule:nonzero;stroke:#c83737;stroke-width:1.10413039;stroke-miterlimit:4;stroke-dasharray:none;stroke-dashoffset:0;stroke-opacity:1" />
      <circle
         r="1.6193656"
         cy="575.11578"
         cx="-295.6756"
         id="path4264-97-0-2"
         style="opacity:1;fill:none;fill-opacity:1;fill-rule:nonzero;stroke:#c83737;stroke-width:1.10413039;stroke-miterlimit:4;stroke-dasharray:none;stroke-dashoffset:0;stroke-opacity:1" />
      <circle
         r="1.6193656"
         cy="533.17322"
         cx="-274.42963"
         id="path4264-3-93"
         style="opacity:1;fill:none;fill-opacity:1;fill-rule:nonzero;stroke:#008000;stroke-width:1.10413039;stroke-miterlimit:4;stroke-dasharray:none;stroke-dashoffset:0;stroke-opacity:1" />
    </g>
    <circle
       style="opacity:1;fill:none;fill-opacity:1;fill-rule:nonzero;stroke:#008000;stroke-width:1.88530099;stroke-miterlimit:4;stroke-dasharray:none;stroke-dashoffset:0;stroke-opacity:1"
       id="path4264-0-9"
       cx="-459.36038"
       cy="689.91412"
       r="2.7650645"
       inkscape:export-xdpi="90"
       inkscape:export-ydpi="90" />
    <circle
       style="opacity:1;fill:none;fill-opacity:1;fill-rule:nonzero;stroke:#c83737;stroke-width:1.88530099;stroke-miterlimit:4;stroke-dasharray:none;stroke-dashoffset:0;stroke-opacity:1"
       id="path4264-45-0"
       cx="-443.19794"
       cy="680.82275"
       r="2.7650645"
       inkscape:export-xdpi="90"
       inkscape:export-ydpi="90" />
    <text
       xml:space="preserve"
       style="font-style:normal;font-weight:normal;font-size:18px;line-height:125%;font-family:Sans;letter-spacing:0px;word-spacing:0px;fill:#666666;fill-opacity:1;stroke:none;stroke-width:1px;stroke-linecap:butt;stroke-linejoin:miter;stroke-opacity:1"
       x="-402.04071"
       y="480.81787"
       id="text5444"
       sodipodi:linespacing="125%"
       inkscape:export-xdpi="90"
       inkscape:export-ydpi="90"><tspan
         sodipodi:role="line"
         id="tspan5446"
         x="-402.04071"
         y="480.81787"
         style="font-weight:bold;font-size:18px;fill:#666666">Ascospore</tspan></text>
    <text
       xml:space="preserve"
       style="font-style:normal;font-weight:normal;font-size:18px;line-height:125%;font-family:Sans;letter-spacing:0px;word-spacing:0px;fill:#666666;fill-opacity:1;stroke:none;stroke-width:1px;stroke-linecap:butt;stroke-linejoin:miter;stroke-opacity:1"
       x="-405.47522"
       y="522.84027"
       id="text5448"
       sodipodi:linespacing="125%"
       inkscape:export-xdpi="90"
       inkscape:export-ydpi="90"><tspan
         sodipodi:role="line"
         id="tspan5450"
         x="-405.47522"
         y="522.84027"
         style="font-weight:bold;fill:#666666">Vegetative propagule</tspan></text>
    <text
       xml:space="preserve"
       style="font-style:normal;font-weight:normal;font-size:18px;line-height:125%;font-family:Sans;letter-spacing:0px;word-spacing:0px;fill:#666666;fill-opacity:1;stroke:none;stroke-width:1px;stroke-linecap:butt;stroke-linejoin:miter;stroke-opacity:1"
       x="-391.33313"
       y="594.5611"
       id="text5452"
       sodipodi:linespacing="125%"
       inkscape:export-xdpi="90"
       inkscape:export-ydpi="90"><tspan
         sodipodi:role="line"
         id="tspan5454"
         x="-391.33313"
         y="594.5611"
         style="font-weight:bold;fill:#666666">Lichen thallus</tspan></text>
    <text
       xml:space="preserve"
       style="font-style:normal;font-weight:normal;font-size:18px;line-height:125%;font-family:Sans;letter-spacing:0px;word-spacing:0px;fill:#666666;fill-opacity:1;stroke:none;stroke-width:1px;stroke-linecap:butt;stroke-linejoin:miter;stroke-opacity:1"
       x="-400.42447"
       y="683.45453"
       id="text5456"
       sodipodi:linespacing="125%"
       inkscape:export-xdpi="90"
       inkscape:export-ydpi="90"><tspan
         sodipodi:role="line"
         id="tspan5458"
         x="-400.42447"
         y="683.45453"
         style="font-weight:bold;fill:#666666">Photobionts</tspan><tspan
         sodipodi:role="line"
         x="-400.42447"
         y="705.95453"
         id="tspan5460" /></text>
    <flowRoot
       xml:space="preserve"
       id="flowRoot5462"
       style="fill:black;stroke:none;stroke-opacity:1;stroke-width:1px;stroke-linejoin:miter;stroke-linecap:butt;fill-opacity:1;font-family:Sans;font-style:normal;font-weight:normal;font-size:18px;line-height:125%;letter-spacing:0px;word-spacing:0px"><flowRegion
         id="flowRegion5464"><rect
           id="rect5466"
           width="240"
           height="252.85715"
           x="-379.28571"
           y="233.79077" /></flowRegion><flowPara
         id="flowPara5468" /></flowRoot>  </g>
</svg>
